<?xml version="1.0" encoding="UTF-8" standalone="no"?>
<!-- Created with Inkscape (http://www.inkscape.org/) -->

<svg
   xmlns:dc="http://purl.org/dc/elements/1.1/"
   xmlns:cc="http://creativecommons.org/ns#"
   xmlns:rdf="http://www.w3.org/1999/02/22-rdf-syntax-ns#"
   xmlns:svg="http://www.w3.org/2000/svg"
   xmlns="http://www.w3.org/2000/svg"
   xmlns:xlink="http://www.w3.org/1999/xlink"
   xmlns:sodipodi="http://sodipodi.sourceforge.net/DTD/sodipodi-0.dtd"
   xmlns:inkscape="http://www.inkscape.org/namespaces/inkscape"
   width="372.04724"
   height="301.18109"
   id="svg2"
   version="1.1"
   inkscape:version="0.48.3.1 r9886"
   sodipodi:docname="back.svg">
  <sodipodi:namedview
     id="base"
     pagecolor="#ffffff"
     bordercolor="#666666"
     borderopacity="1.0"
     inkscape:pageopacity="0.0"
     inkscape:pageshadow="2"
     inkscape:zoom="1.2466709"
     inkscape:cx="186.02362"
     inkscape:cy="150.59054"
     inkscape:document-units="mm"
     inkscape:current-layer="layer3"
     showgrid="true"
     units="mm"
     borderlayer="true"
     inkscape:showpageshadow="false"
     inkscape:window-width="1280"
     inkscape:window-height="749"
     inkscape:window-x="0"
     inkscape:window-y="27"
     inkscape:window-maximized="1"
     showguides="false"
     inkscape:guide-bbox="true">
    <inkscape:grid
       spacingy="0.25mm"
       spacingx="0.25mm"
       units="mm"
       snapvisiblegridlinesonly="true"
       enabled="true"
       visible="false"
       empspacing="4"
       id="grid3008"
       type="xygrid" />
  </sodipodi:namedview>
  <defs
     id="defs4" />
  <metadata
     id="metadata7">
    <rdf:RDF>
      <cc:Work
         rdf:about="">
        <dc:format>image/svg+xml</dc:format>
        <dc:type
           rdf:resource="http://purl.org/dc/dcmitype/StillImage" />
        <dc:title />
      </cc:Work>
    </rdf:RDF>
  </metadata>
  <g
     sodipodi:insensitive="true"
     style="display:none"
     transform="translate(0,-751.18113)"
     id="layer1"
     inkscape:groupmode="layer"
     inkscape:label="Board">
    <image
       style="opacity:0.39361704"
       width="411.02362"
       height="322.69476"
       xlink:href="file:///home/natronics/open-notify/Code/ISS-Notify-Hardware/board.png"
       id="image3278"
       x="-22.501968"
       y="740.44305" />
  </g>
  <g
     style="display:inline"
     transform="translate(0,17.716498)"
     inkscape:label="Boarder(CUT)"
     id="layer2"
     inkscape:groupmode="layer">
    <path
       sodipodi:nodetypes="ccccssssc"
       inkscape:connector-curvature="0"
       id="path3778"
       d="m 14.173228,279.92129 c 120.472442,0 251.574802,0 347.244092,0 5.31496,-10e-6 6.93335,-2.55018 6.93335,-7.86514 0.15327,-34.65455 0.15327,-169.30022 0,-276.377952 -10e-6,-5.314961 -1.77166,-7.086614 -7.08662,-7.086614 -17.71654,0 -343.700782,0 -347.244089,0 -5.31496,0 -7.086614,1.771653 -7.086614,7.086614 0,3.543307 0,272.834642 0,276.377952 0,5.31496 3.696574,7.86514 7.239881,7.86514 z"
       style="fill:none;stroke:#ff0000;stroke-width:0.70866144;stroke-linecap:butt;stroke-linejoin:miter;stroke-miterlimit:4;stroke-opacity:1;stroke-dasharray:none" />
    <g
       id="g3002"
       transform="matrix(0.32316168,0,0,0.32316168,62.429524,253.75299)"
       inkscape:label="Hershey Text"
       style="stroke:#000000;stroke-width:1.93401647;stroke-miterlimit:4;stroke-opacity:1;stroke-dasharray:none">
      <path
         id="path3004"
         transform="translate(11,0)"
         d="M -8,-5 -4,9 M 0,-5 -4,9 M 0,-5 4,9 M 8,-5 4,9"
         style="fill:none;stroke:#000000;stroke-width:1.93401647;stroke-miterlimit:4;stroke-opacity:1;stroke-dasharray:none"
         inkscape:connector-curvature="0" />
      <path
         id="path3006"
         transform="translate(33,0)"
         d="M -8,-5 -4,9 M 0,-5 -4,9 M 0,-5 4,9 M 8,-5 4,9"
         style="fill:none;stroke:#000000;stroke-width:1.93401647;stroke-miterlimit:4;stroke-opacity:1;stroke-dasharray:none"
         inkscape:connector-curvature="0" />
      <path
         id="path3008"
         transform="translate(55,0)"
         d="M -8,-5 -4,9 M 0,-5 -4,9 M 0,-5 4,9 M 8,-5 4,9"
         style="fill:none;stroke:#000000;stroke-width:1.93401647;stroke-miterlimit:4;stroke-opacity:1;stroke-dasharray:none"
         inkscape:connector-curvature="0" />
      <path
         id="path3010"
         transform="translate(70,0)"
         d="M 0,4 -1,5 0,6 1,5 0,4"
         style="fill:none;stroke:#000000;stroke-width:1.93401647;stroke-miterlimit:4;stroke-opacity:1;stroke-dasharray:none"
         inkscape:connector-curvature="0" />
      <path
         id="path3012"
         transform="translate(83,0)"
         d="m -1,-5 -2,1 -2,2 -1,3 0,2 1,3 2,2 2,1 L 2,9 4,8 6,6 7,3 7,1 6,-2 4,-4 2,-5 -1,-5"
         style="fill:none;stroke:#000000;stroke-width:1.93401647;stroke-miterlimit:4;stroke-opacity:1;stroke-dasharray:none"
         inkscape:connector-curvature="0" />
      <path
         id="path3014"
         transform="translate(103,0)"
         d="m -6,-5 0,21 m 0,-18 2,-2 2,-1 3,0 2,1 2,2 L 6,1 6,3 5,6 3,8 1,9 -2,9 -4,8 -6,6"
         style="fill:none;stroke:#000000;stroke-width:1.93401647;stroke-miterlimit:4;stroke-opacity:1;stroke-dasharray:none"
         inkscape:connector-curvature="0" />
      <path
         id="path3016"
         transform="translate(121,0)"
         d="M -6,1 6,1 6,-1 5,-3 4,-4 2,-5 l -3,0 -2,1 -2,2 -1,3 0,2 1,3 2,2 2,1 3,0 2,-1 2,-2"
         style="fill:none;stroke:#000000;stroke-width:1.93401647;stroke-miterlimit:4;stroke-opacity:1;stroke-dasharray:none"
         inkscape:connector-curvature="0" />
      <path
         id="path3018"
         transform="translate(139,0)"
         d="m -5,-5 0,14 m 0,-10 3,-3 2,-1 3,0 2,1 1,3 0,10"
         style="fill:none;stroke:#000000;stroke-width:1.93401647;stroke-miterlimit:4;stroke-opacity:1;stroke-dasharray:none"
         inkscape:connector-curvature="0" />
      <path
         id="path3020"
         transform="translate(162,0)"
         d="M -9,0 9,0"
         style="fill:none;stroke:#000000;stroke-width:1.93401647;stroke-miterlimit:4;stroke-opacity:1;stroke-dasharray:none"
         inkscape:connector-curvature="0" />
      <path
         id="path3022"
         transform="translate(184,0)"
         d="m -5,-5 0,14 m 0,-10 3,-3 2,-1 3,0 2,1 1,3 0,10"
         style="fill:none;stroke:#000000;stroke-width:1.93401647;stroke-miterlimit:4;stroke-opacity:1;stroke-dasharray:none"
         inkscape:connector-curvature="0" />
      <path
         id="path3024"
         transform="translate(203,0)"
         d="m -1,-5 -2,1 -2,2 -1,3 0,2 1,3 2,2 2,1 L 2,9 4,8 6,6 7,3 7,1 6,-2 4,-4 2,-5 -1,-5"
         style="fill:none;stroke:#000000;stroke-width:1.93401647;stroke-miterlimit:4;stroke-opacity:1;stroke-dasharray:none"
         inkscape:connector-curvature="0" />
      <path
         id="path3026"
         transform="translate(218,0)"
         d="M 0,-12 0,5 1,8 3,9 5,9 m -8,-14 7,0"
         style="fill:none;stroke:#000000;stroke-width:1.93401647;stroke-miterlimit:4;stroke-opacity:1;stroke-dasharray:none"
         inkscape:connector-curvature="0" />
      <path
         id="path3028"
         transform="translate(229,0)"
         d="m -1,-12 1,1 1,-1 -1,-1 -1,1 m 1,7 0,14"
         style="fill:none;stroke:#000000;stroke-width:1.93401647;stroke-miterlimit:4;stroke-opacity:1;stroke-dasharray:none"
         inkscape:connector-curvature="0" />
      <path
         id="path3030"
         transform="translate(238,0)"
         d="m 5,-12 -2,0 -2,1 -1,3 0,17 m -3,-14 7,0"
         style="fill:none;stroke:#000000;stroke-width:1.93401647;stroke-miterlimit:4;stroke-opacity:1;stroke-dasharray:none"
         inkscape:connector-curvature="0" />
      <path
         id="path3032"
         transform="translate(253,0)"
         d="M -6,-5 0,9 M 6,-5 0,9 l -2,4 -2,2 -2,1 -1,0"
         style="fill:none;stroke:#000000;stroke-width:1.93401647;stroke-miterlimit:4;stroke-opacity:1;stroke-dasharray:none"
         inkscape:connector-curvature="0" />
      <path
         id="path3034"
         transform="translate(265,0)"
         d="M 0,4 -1,5 0,6 1,5 0,4"
         style="fill:none;stroke:#000000;stroke-width:1.93401647;stroke-miterlimit:4;stroke-opacity:1;stroke-dasharray:none"
         inkscape:connector-curvature="0" />
      <path
         id="path3036"
         transform="translate(278,0)"
         d="m -1,-5 -2,1 -2,2 -1,3 0,2 1,3 2,2 2,1 L 2,9 4,8 6,6 7,3 7,1 6,-2 4,-4 2,-5 -1,-5"
         style="fill:none;stroke:#000000;stroke-width:1.93401647;stroke-miterlimit:4;stroke-opacity:1;stroke-dasharray:none"
         inkscape:connector-curvature="0" />
      <path
         id="path3038"
         transform="translate(295,0)"
         d="m -3,-5 0,14 m 0,-8 1,-3 2,-2 2,-1 3,0"
         style="fill:none;stroke:#000000;stroke-width:1.93401647;stroke-miterlimit:4;stroke-opacity:1;stroke-dasharray:none"
         inkscape:connector-curvature="0" />
      <path
         id="path3040"
         transform="translate(310,0)"
         d="m 6,-5 0,16 -1,3 -1,1 -2,1 -3,0 -2,-1 M 6,-2 4,-4 2,-5 l -3,0 -2,1 -2,2 -1,3 0,2 1,3 2,2 2,1 3,0 2,-1 2,-2"
         style="fill:none;stroke:#000000;stroke-width:1.93401647;stroke-miterlimit:4;stroke-opacity:1;stroke-dasharray:none"
         inkscape:connector-curvature="0" />
    </g>
  </g>
  <g
     style="display:inline"
     transform="translate(0,17.716498)"
     inkscape:label="Holes(CUT)"
     id="layer3"
     inkscape:groupmode="layer">
    <path
       transform="matrix(0.8,0,0,1,14.728623,-7.865111)"
       d="m 30.11811,21.259844 c 0,3.913829 -3.965982,7.086614 -8.858268,7.086614 -4.892286,0 -8.858268,-3.172785 -8.858268,-7.086614 0,-3.913829 3.965982,-7.086614 8.858268,-7.086614 4.892286,0 8.858268,3.172785 8.858268,7.086614 z"
       sodipodi:ry="7.0866141"
       sodipodi:rx="8.8582678"
       sodipodi:cy="21.259844"
       sodipodi:cx="21.259842"
       id="path3783"
       style="fill:none;stroke:#ff0000;stroke-width:1.05641007;stroke-miterlimit:4;stroke-opacity:1;stroke-dasharray:none"
       sodipodi:type="arc" />
    <path
       transform="matrix(0.79999988,0,0,1,326.53964,-7.865111)"
       d="m 30.11811,21.259844 c 0,3.913829 -3.965982,7.086614 -8.858268,7.086614 -4.892286,0 -8.858268,-3.172785 -8.858268,-7.086614 0,-3.913829 3.965982,-7.086614 8.858268,-7.086614 4.892286,0 8.858268,3.172785 8.858268,7.086614 z"
       sodipodi:ry="7.0866141"
       sodipodi:rx="8.8582678"
       sodipodi:cy="21.259844"
       sodipodi:cx="21.259842"
       id="path3783-3"
       style="fill:none;stroke:#ff0000;stroke-width:1.05641007;stroke-miterlimit:4;stroke-opacity:1;stroke-dasharray:none"
       sodipodi:type="arc" />
    <path
       transform="matrix(0.79999988,0,0,1,326.53964,233.07977)"
       d="m 30.11811,21.259844 c 0,3.913829 -3.965982,7.086614 -8.858268,7.086614 -4.892286,0 -8.858268,-3.172785 -8.858268,-7.086614 0,-3.913829 3.965982,-7.086614 8.858268,-7.086614 4.892286,0 8.858268,3.172785 8.858268,7.086614 z"
       sodipodi:ry="7.0866141"
       sodipodi:rx="8.8582678"
       sodipodi:cy="21.259844"
       sodipodi:cx="21.259842"
       id="path3783-5"
       style="fill:none;stroke:#ff0000;stroke-width:1.05641007;stroke-miterlimit:4;stroke-opacity:1;stroke-dasharray:none"
       sodipodi:type="arc" />
    <path
       transform="matrix(0.8,0,0,1,14.728623,233.07977)"
       d="m 30.11811,21.259844 c 0,3.913829 -3.965982,7.086614 -8.858268,7.086614 -4.892286,0 -8.858268,-3.172785 -8.858268,-7.086614 0,-3.913829 3.965982,-7.086614 8.858268,-7.086614 4.892286,0 8.858268,3.172785 8.858268,7.086614 z"
       transform="matrix(0.8,0,0,1,14.728623,233.07977)" />
    <text
       xml:space="preserve"
       style="font-size:16px;font-style:normal;font-variant:normal;font-weight:100;font-stretch:normal;text-align:center;line-height:125%;letter-spacing:0px;word-spacing:0px;writing-mode:lr-tb;text-anchor:middle;fill:#000000;fill-opacity:1;stroke:none;font-family:Helvetica CE 35 Thin;-inkscape-font-specification:'Helvetica CE 35 Thin, Thin'"
       x="187.79527"
       y="172.64569"
       id="text3761"
       sodipodi:linespacing="125%"><tspan
         sodipodi:role="line"
         id="tspan3763"
         x="188.57027"
         y="172.64569"
         style="letter-spacing:1.54999995px">www.open-notify.org</tspan></text>
    <text
       xml:space="preserve"
       style="font-size:14px;font-style:normal;font-variant:normal;font-weight:normal;font-stretch:normal;text-align:center;line-height:125%;letter-spacing:0px;word-spacing:0px;writing-mode:lr;text-anchor:middle;fill:#000000;fill-opacity:1;stroke:none;display:inline;font-family:Helvetica CE;-inkscape-font-specification:Helvetica CE"
       x="336.61417"
       y="63.149632"
       id="text3761-8"
       sodipodi:linespacing="125%"><tspan
         sodipodi:role="line"
         id="tspan3802"
         x="336.61417"
         y="63.149632">ON</tspan></text>
    <text
       xml:space="preserve"
       style="font-size:14px;font-style:normal;font-variant:normal;font-weight:normal;font-stretch:normal;text-align:center;line-height:125%;letter-spacing:0px;word-spacing:0px;writing-mode:lr;text-anchor:middle;fill:#000000;fill-opacity:1;stroke:none;display:inline;font-family:Helvetica CE;-inkscape-font-specification:Helvetica CE"
       x="336.61417"
       y="124.01578"
       id="text3761-8-5"
       sodipodi:linespacing="125%"><tspan
         sodipodi:role="line"
         id="tspan3825"
         x="336.61417"
         y="124.01578">off</tspan></text>
    <path
       sodipodi:type="arc"
       style="fill:none;stroke:#00ff00;stroke-width:0.52820522;stroke-miterlimit:4;stroke-opacity:1;stroke-dasharray:none;display:inline"
       id="path3783-3-3"
       sodipodi:cx="21.259842"
       sodipodi:cy="21.259844"
       sodipodi:rx="8.8582678"
       sodipodi:ry="7.0866141"
       d="m 30.11811,21.259844 a 8.8582678,7.0866141 0 1 1 -17.716536,0 8.8582678,7.0866141 0 1 1 17.716536,0 z"
       transform="matrix(1.5999993,0,0,1.9999994,153.77955,-20.629889)" />
  </g>
  <g
     style="display:inline"
     transform="translate(0,17.716498)"
     inkscape:label="Light(Raster)"
     id="layer4"
     inkscape:groupmode="layer" />
  <g
     style="display:inline"
     transform="translate(0,17.716498)"
     inkscape:label="Text(Raster)"
     id="layer5"
     inkscape:groupmode="layer" />
</svg>
