<?xml version="1.0" encoding="UTF-8" standalone="no"?>
<!-- Created with Inkscape (http://www.inkscape.org/) -->

<svg
   xmlns:dc="http://purl.org/dc/elements/1.1/"
   xmlns:cc="http://creativecommons.org/ns#"
   xmlns:rdf="http://www.w3.org/1999/02/22-rdf-syntax-ns#"
   xmlns:svg="http://www.w3.org/2000/svg"
   xmlns="http://www.w3.org/2000/svg"
   xmlns:xlink="http://www.w3.org/1999/xlink"
   xmlns:sodipodi="http://sodipodi.sourceforge.net/DTD/sodipodi-0.dtd"
   xmlns:inkscape="http://www.inkscape.org/namespaces/inkscape"
   width="372.04724"
   height="301.18109"
   id="svg2"
   version="1.1"
   inkscape:version="0.48.2 r9819"
   sodipodi:docname="back.svg">
  <defs
     id="defs4" />
  <sodipodi:namedview
     id="base"
     pagecolor="#ffffff"
     bordercolor="#666666"
     borderopacity="1.0"
     inkscape:pageopacity="0.0"
     inkscape:pageshadow="2"
     inkscape:zoom="3.3202616"
     inkscape:cx="186.02362"
     inkscape:cy="150.59055"
     inkscape:document-units="mm"
     inkscape:current-layer="layer2"
     showgrid="true"
     units="mm"
     borderlayer="true"
     inkscape:showpageshadow="false"
     inkscape:window-width="1920"
     inkscape:window-height="1176"
     inkscape:window-x="0"
     inkscape:window-y="24"
     inkscape:window-maximized="1">
    <inkscape:grid
       type="xygrid"
       id="grid3008"
       empspacing="4"
       visible="true"
       enabled="true"
       snapvisiblegridlinesonly="true"
       units="mm"
       spacingx="0.25mm"
       spacingy="0.25mm" />
  </sodipodi:namedview>
  <metadata
     id="metadata7">
    <rdf:RDF>
      <cc:Work
         rdf:about="">
        <dc:format>image/svg+xml</dc:format>
        <dc:type
           rdf:resource="http://purl.org/dc/dcmitype/StillImage" />
        <dc:title></dc:title>
      </cc:Work>
    </rdf:RDF>
  </metadata>
  <g
     inkscape:label="Board"
     inkscape:groupmode="layer"
     id="layer1"
     transform="translate(0,-751.18113)"
     style="display:none"
     sodipodi:insensitive="true">
    <image
       y="740.44305"
       x="-22.501968"
       id="image3278"
       xlink:href="file:///home/natronics/open-notify/Code/ISS-Notify-Hardware/board.png"
       height="322.69476"
       width="411.02362"
       style="opacity:0.39361704" />
  </g>
  <g
     inkscape:groupmode="layer"
     id="layer2"
     inkscape:label="Boarder(CUT)"
     transform="translate(0,17.716498)"
     style="display:inline">
    <path
       style="fill:none;stroke:#ff0000;stroke-width:0.70866144;stroke-linecap:butt;stroke-linejoin:miter;stroke-miterlimit:4;stroke-opacity:1;stroke-dasharray:none"
       d="m 14.173228,279.92129 c 120.472442,0 251.574802,0 347.244092,0 5.31496,-10e-6 6.93335,-2.55018 6.93335,-7.86514 0.15327,-34.65455 0.15327,-169.30022 0,-276.377952 -10e-6,-5.314961 -1.77166,-7.086614 -7.08662,-7.086614 -17.71654,0 -343.700782,0 -347.244089,0 -5.31496,0 -7.086614,1.771653 -7.086614,7.086614 0,3.543307 0,272.834642 0,276.377952 0,5.31496 3.696574,7.86514 7.239881,7.86514 z"
       id="path3778"
       inkscape:connector-curvature="0"
       sodipodi:nodetypes="ccccssssc" />
  </g>
  <g
     inkscape:groupmode="layer"
     id="layer3"
     inkscape:label="Holes(CUT)"
     transform="translate(0,17.716498)"
     style="display:inline">
    <path
       sodipodi:type="arc"
       style="fill:none;stroke:#ff0000;stroke-width:1.05641007;stroke-miterlimit:4;stroke-opacity:1;stroke-dasharray:none"
       id="path3783"
       sodipodi:cx="21.259842"
       sodipodi:cy="21.259844"
       sodipodi:rx="8.8582678"
       sodipodi:ry="7.0866141"
       d="m 30.11811,21.259844 c 0,3.913829 -3.965982,7.086614 -8.858268,7.086614 -4.892286,0 -8.858268,-3.172785 -8.858268,-7.086614 0,-3.913829 3.965982,-7.086614 8.858268,-7.086614 4.892286,0 8.858268,3.172785 8.858268,7.086614 z"
       transform="matrix(0.8,0,0,1,14.728623,-7.865111)" />
    <path
       sodipodi:type="arc"
       style="fill:none;stroke:#ff0000;stroke-width:1.05641007;stroke-miterlimit:4;stroke-opacity:1;stroke-dasharray:none"
       id="path3783-3"
       sodipodi:cx="21.259842"
       sodipodi:cy="21.259844"
       sodipodi:rx="8.8582678"
       sodipodi:ry="7.0866141"
       d="m 30.11811,21.259844 c 0,3.913829 -3.965982,7.086614 -8.858268,7.086614 -4.892286,0 -8.858268,-3.172785 -8.858268,-7.086614 0,-3.913829 3.965982,-7.086614 8.858268,-7.086614 4.892286,0 8.858268,3.172785 8.858268,7.086614 z"
       transform="matrix(0.79999988,0,0,1,326.53964,-7.865111)" />
    <path
       sodipodi:type="arc"
       style="fill:none;stroke:#ff0000;stroke-width:1.05641007;stroke-miterlimit:4;stroke-opacity:1;stroke-dasharray:none"
       id="path3783-5"
       sodipodi:cx="21.259842"
       sodipodi:cy="21.259844"
       sodipodi:rx="8.8582678"
       sodipodi:ry="7.0866141"
       d="m 30.11811,21.259844 c 0,3.913829 -3.965982,7.086614 -8.858268,7.086614 -4.892286,0 -8.858268,-3.172785 -8.858268,-7.086614 0,-3.913829 3.965982,-7.086614 8.858268,-7.086614 4.892286,0 8.858268,3.172785 8.858268,7.086614 z"
       transform="matrix(0.79999988,0,0,1,326.53964,233.07977)" />
    <path
       sodipodi:type="arc"
       style="fill:none;stroke:#ff0000;stroke-width:1.05641007;stroke-miterlimit:4;stroke-opacity:1;stroke-dasharray:none"
       id="path3783-6"
       sodipodi:cx="21.259842"
       sodipodi:cy="21.259844"
       sodipodi:rx="8.8582678"
       sodipodi:ry="7.0866141"
       d="m 30.11811,21.259844 c 0,3.913829 -3.965982,7.086614 -8.858268,7.086614 -4.892286,0 -8.858268,-3.172785 -8.858268,-7.086614 0,-3.913829 3.965982,-7.086614 8.858268,-7.086614 4.892286,0 8.858268,3.172785 8.858268,7.086614 z"
       transform="matrix(0.8,0,0,1,14.728623,233.07977)" />
  </g>
  <g
     inkscape:groupmode="layer"
     id="layer4"
     inkscape:label="Light(Raster)"
     transform="translate(0,17.716498)"
     style="display:inline" />
  <g
     inkscape:groupmode="layer"
     id="layer5"
     inkscape:label="Text(Raster)"
     transform="translate(0,17.716498)"
     style="display:inline" />
</svg>
