<?xml version="1.0" encoding="UTF-8" standalone="no"?>
<!-- Created with Inkscape (http://www.inkscape.org/) -->

<svg
   xmlns:dc="http://purl.org/dc/elements/1.1/"
   xmlns:cc="http://creativecommons.org/ns#"
   xmlns:rdf="http://www.w3.org/1999/02/22-rdf-syntax-ns#"
   xmlns:svg="http://www.w3.org/2000/svg"
   xmlns="http://www.w3.org/2000/svg"
   xmlns:xlink="http://www.w3.org/1999/xlink"
   xmlns:sodipodi="http://sodipodi.sourceforge.net/DTD/sodipodi-0.dtd"
   xmlns:inkscape="http://www.inkscape.org/namespaces/inkscape"
   width="372.04724"
   height="301.18109"
   id="svg2"
   version="1.1"
   inkscape:version="0.48.3.1 r9886"
   sodipodi:docname="faceplate.svg">
  <defs
     id="defs4" />
  <sodipodi:namedview
     id="base"
     pagecolor="#ffffff"
     bordercolor="#666666"
     borderopacity="1.0"
     inkscape:pageopacity="0.0"
     inkscape:pageshadow="2"
     inkscape:zoom="1.7630589"
     inkscape:cx="186.02362"
     inkscape:cy="150.59055"
     inkscape:document-units="mm"
     inkscape:current-layer="layer3"
     showgrid="true"
     units="mm"
     borderlayer="true"
     inkscape:showpageshadow="false"
     inkscape:window-width="1280"
     inkscape:window-height="749"
     inkscape:window-x="0"
     inkscape:window-y="27"
     inkscape:window-maximized="1">
    <inkscape:grid
       type="xygrid"
       id="grid3008"
       empspacing="4"
       visible="true"
       enabled="true"
       snapvisiblegridlinesonly="true"
       units="mm"
       spacingx="5mm"
       spacingy="5mm" />
  </sodipodi:namedview>
  <metadata
     id="metadata7">
    <rdf:RDF>
      <cc:Work
         rdf:about="">
        <dc:format>image/svg+xml</dc:format>
        <dc:type
           rdf:resource="http://purl.org/dc/dcmitype/StillImage" />
        <dc:title />
      </cc:Work>
    </rdf:RDF>
  </metadata>
  <g
     inkscape:label="Board"
     inkscape:groupmode="layer"
     id="layer1"
     transform="translate(0,-751.18113)"
     style="display:none"
     sodipodi:insensitive="true">
    <image
       y="740.44305"
       x="-22.501968"
       id="image3278"
       xlink:href="file:///home/natronics/open-notify/Code/ISS-Notify-Hardware/board.png"
       height="322.69476"
       width="411.02362"
       style="opacity:0.39361704" />
  </g>
  <g
     inkscape:groupmode="layer"
     id="layer2"
     inkscape:label="Boarder(CUT)"
     transform="translate(0,17.716498)"
     style="display:inline">
    <path
       style="fill:none;stroke:#ff0000;stroke-width:0.70875;stroke-linecap:butt;stroke-linejoin:miter;stroke-miterlimit:4;stroke-opacity:1;stroke-dasharray:none"
       d="m 14.173228,279.92129 c 3.543307,0 215.438592,0 226.771652,0 7.08662,0 10.62992,-24.80315 17.71654,-24.80315 21.25984,0 37.05866,0 53.1496,0 7.08662,0 10.62992,24.80315 17.71654,24.80315 14.63423,0 30.78115,0 31.88976,0 5.31496,-10e-6 6.93335,-2.55018 6.93335,-7.86514 0,-0.87393 0.15327,-6.15143 0.15327,-31.11124 0,-7.08662 -21.25985,-10.62993 -21.25985,-17.71654 0,-16.50243 -0.15327,-50.38482 -0.15327,-57.47143 0,-5.82375 21.25985,-10.62992 21.25985,-17.71654 0,-72.66865 1e-5,-148.583666 0,-152.362202 -10e-6,-5.314961 -1.77166,-7.086614 -7.08662,-7.086614 -17.71654,0 -343.700782,0 -347.244089,0 -5.31496,0 -7.086614,1.771653 -7.086614,7.086614 0,3.543307 0,272.834642 0,276.377952 0,5.31496 3.696574,7.86514 7.239881,7.86514 z"
       id="path3778"
       inkscape:connector-curvature="0"
       sodipodi:nodetypes="zsssssssssssssssz" />
  </g>
  <g
     inkscape:groupmode="layer"
     id="layer3"
     inkscape:label="Holes(CUT)"
     transform="translate(0,17.716498)"
     style="display:inline">
    <path
       sodipodi:type="arc"
       style="fill:none;stroke:#00ff00;stroke-width:1.05641007000000009;stroke-miterlimit:4;stroke-opacity:1;stroke-dasharray:none"
       id="path3783"
       sodipodi:cx="21.259842"
       sodipodi:cy="21.259844"
       sodipodi:rx="8.8582678"
       sodipodi:ry="7.0866141"
       d="m 30.11811,21.259844 c 0,3.913829 -3.965982,7.086614 -8.858268,7.086614 -4.892286,0 -8.858268,-3.172785 -8.858268,-7.086614 0,-3.913829 3.965982,-7.086614 8.858268,-7.086614 4.892286,0 8.858268,3.172785 8.858268,7.086614 z"
       transform="matrix(0.8,0,0,1,14.728623,-7.865111)" />
    <path
       sodipodi:type="arc"
       style="fill:none;stroke:#00ff00;stroke-width:1.05641007000000009;stroke-miterlimit:4;stroke-opacity:1;stroke-dasharray:none"
       id="path3783-3"
       sodipodi:cx="21.259842"
       sodipodi:cy="21.259844"
       sodipodi:rx="8.8582678"
       sodipodi:ry="7.0866141"
       d="m 30.11811,21.259844 c 0,3.913829 -3.965982,7.086614 -8.858268,7.086614 -4.892286,0 -8.858268,-3.172785 -8.858268,-7.086614 0,-3.913829 3.965982,-7.086614 8.858268,-7.086614 4.892286,0 8.858268,3.172785 8.858268,7.086614 z"
       transform="matrix(0.79999988,0,0,1,326.53964,-7.865111)" />
    <path
       sodipodi:type="arc"
       style="fill:none;stroke:#00ff00;stroke-width:1.05641007000000009;stroke-miterlimit:4;stroke-opacity:1;stroke-dasharray:none"
       id="path3783-5"
       sodipodi:cx="21.259842"
       sodipodi:cy="21.259844"
       sodipodi:rx="8.8582678"
       sodipodi:ry="7.0866141"
       d="m 30.11811,21.259844 c 0,3.913829 -3.965982,7.086614 -8.858268,7.086614 -4.892286,0 -8.858268,-3.172785 -8.858268,-7.086614 0,-3.913829 3.965982,-7.086614 8.858268,-7.086614 4.892286,0 8.858268,3.172785 8.858268,7.086614 z"
       transform="matrix(0.79999988,0,0,1,326.53964,233.07977)" />
    <path
       sodipodi:type="arc"
       style="fill:none;stroke:#00ff00;stroke-width:1.05641007000000009;stroke-miterlimit:4;stroke-opacity:1;stroke-dasharray:none"
       id="path3783-6"
       sodipodi:cx="21.259842"
       sodipodi:cy="21.259844"
       sodipodi:rx="8.8582678"
       sodipodi:ry="7.0866141"
       d="m 30.11811,21.259844 c 0,3.913829 -3.965982,7.086614 -8.858268,7.086614 -4.892286,0 -8.858268,-3.172785 -8.858268,-7.086614 0,-3.913829 3.965982,-7.086614 8.858268,-7.086614 4.892286,0 8.858268,3.172785 8.858268,7.086614 z"
       transform="matrix(0.8,0,0,1,14.728623,233.07977)" />
  </g>
  <g
     inkscape:groupmode="layer"
     id="layer4"
     inkscape:label="Light(Raster)"
     transform="translate(0,17.716498)"
     style="display:inline">
    <path
       sodipodi:type="arc"
       style="fill:none;stroke:#000000;stroke-width:1.55224562;stroke-miterlimit:4;stroke-opacity:0.87843137;stroke-dasharray:1.55224564, 1.55224564;stroke-dashoffset:0"
       id="path3926"
       sodipodi:cx="177.16536"
       sodipodi:cy="141.73228"
       sodipodi:rx="70.866142"
       sodipodi:ry="85.039368"
       d="m 248.0315,141.73228 c 0,46.96595 -31.72785,85.03937 -70.86614,85.03937 -39.13829,0 -70.86614,-38.07342 -70.86614,-85.03937 0,-46.965941 31.72785,-85.039363 70.86614,-85.039363 39.13829,0 70.86614,38.073422 70.86614,85.039363 z"
       transform="matrix(1.2500001,0,0,1.0416667,-33.814697,-13.770629)" />
    <g
       id="g3182"
       style="stroke:none;fill:#000000;fill-opacity:1">
      <path
         transform="matrix(0.9,0,0,0.9,15.590556,-16.299175)"
         d="m 209.05511,67.322823 c 0,9.784572 -7.93196,17.716535 -17.71653,17.716535 -9.78458,0 -17.71654,-7.931963 -17.71654,-17.716535 0,-9.784573 7.93196,-17.716536 17.71654,-17.716536 9.78457,0 17.71653,7.931963 17.71653,17.716536 z"
         sodipodi:ry="17.716536"
         sodipodi:rx="17.716536"
         sodipodi:cy="67.322823"
         sodipodi:cx="191.33858"
         id="path3081"
         style="fill:#000000;stroke:none;stroke-width:1.11023629000000001;stroke-linecap:round;stroke-linejoin:bevel;stroke-miterlimit:4;stroke-opacity:1;stroke-dasharray:none;stroke-dashoffset:0;fill-opacity:1"
         sodipodi:type="arc" />
      <path
         transform="matrix(0.9,0,0,0.9,59.451108,-3.3405887)"
         d="m 209.05511,67.322823 c 0,9.784572 -7.93196,17.716535 -17.71653,17.716535 -9.78458,0 -17.71654,-7.931963 -17.71654,-17.716535 0,-9.784573 7.93196,-17.716536 17.71654,-17.716536 9.78457,0 17.71653,7.931963 17.71653,17.716536 z"
         sodipodi:ry="17.716536"
         sodipodi:rx="17.716536"
         sodipodi:cy="67.322823"
         sodipodi:cx="191.33858"
         id="path3081-6"
         style="fill:#000000;stroke:none;stroke-width:1.11023629000000001;stroke-linecap:round;stroke-linejoin:bevel;stroke-miterlimit:4;stroke-opacity:1;stroke-dasharray:none;stroke-dashoffset:0;display:inline;fill-opacity:1"
         sodipodi:type="arc" />
      <path
         transform="matrix(0.9,0,0,0.9,-28.346209,-3.3405887)"
         d="m 209.05511,67.322823 c 0,9.784572 -7.93196,17.716535 -17.71653,17.716535 -9.78458,0 -17.71654,-7.931963 -17.71654,-17.716535 0,-9.784573 7.93196,-17.716536 17.71654,-17.716536 9.78457,0 17.71653,7.931963 17.71653,17.716536 z"
         sodipodi:ry="17.716536"
         sodipodi:rx="17.716536"
         sodipodi:cy="67.322823"
         sodipodi:cx="191.33858"
         id="path3081-5"
         style="fill:#000000;stroke:none;stroke-width:1.11023629000000001;stroke-linecap:round;stroke-linejoin:bevel;stroke-miterlimit:4;stroke-opacity:1;stroke-dasharray:none;stroke-dashoffset:0;display:inline;fill-opacity:1"
         sodipodi:type="arc" />
      <path
         transform="matrix(0.9,0,0,0.9,91.948192,28.776017)"
         d="m 209.05511,67.322823 c 0,9.784572 -7.93196,17.716535 -17.71653,17.716535 -9.78458,0 -17.71654,-7.931963 -17.71654,-17.716535 0,-9.784573 7.93196,-17.716536 17.71654,-17.716536 9.78457,0 17.71653,7.931963 17.71653,17.716536 z"
         sodipodi:ry="17.716536"
         sodipodi:rx="17.716536"
         sodipodi:cy="67.322823"
         sodipodi:cx="191.33858"
         id="path3081-6-1"
         style="fill:#000000;stroke:none;stroke-width:1.11023629000000001;stroke-linecap:round;stroke-linejoin:bevel;stroke-miterlimit:4;stroke-opacity:1;stroke-dasharray:none;stroke-dashoffset:0;display:inline;fill-opacity:1"
         sodipodi:type="arc" />
      <path
         transform="matrix(0.9,0,0,0.9,103.28726,72.612167)"
         d="m 209.05511,67.322823 c 0,9.784572 -7.93196,17.716535 -17.71653,17.716535 -9.78458,0 -17.71654,-7.931963 -17.71654,-17.716535 0,-9.784573 7.93196,-17.716536 17.71654,-17.716536 9.78457,0 17.71653,7.931963 17.71653,17.716536 z"
         sodipodi:ry="17.716536"
         sodipodi:rx="17.716536"
         sodipodi:cy="67.322823"
         sodipodi:cx="191.33858"
         id="path3081-6-13"
         style="fill:#000000;stroke:none;stroke-width:1.11023629000000001;stroke-linecap:round;stroke-linejoin:bevel;stroke-miterlimit:4;stroke-opacity:1;stroke-dasharray:none;stroke-dashoffset:0;display:inline;fill-opacity:1"
         sodipodi:type="arc" />
      <path
         transform="matrix(0.9,0,0,0.9,91.89638,117.53673)"
         d="m 209.05511,67.322823 c 0,9.784572 -7.93196,17.716535 -17.71653,17.716535 -9.78458,0 -17.71654,-7.931963 -17.71654,-17.716535 0,-9.784573 7.93196,-17.716536 17.71654,-17.716536 9.78457,0 17.71653,7.931963 17.71653,17.716536 z"
         sodipodi:ry="17.716536"
         sodipodi:rx="17.716536"
         sodipodi:cy="67.322823"
         sodipodi:cx="191.33858"
         id="path3081-6-3"
         style="fill:#000000;stroke:none;stroke-width:1.11023629000000001;stroke-linecap:round;stroke-linejoin:bevel;stroke-miterlimit:4;stroke-opacity:1;stroke-dasharray:none;stroke-dashoffset:0;display:inline;fill-opacity:1"
         sodipodi:type="arc" />
      <path
         transform="matrix(0.9,0,0,0.9,59.907801,148.74476)"
         d="m 209.05511,67.322823 c 0,9.784572 -7.93196,17.716535 -17.71653,17.716535 -9.78458,0 -17.71654,-7.931963 -17.71654,-17.716535 0,-9.784573 7.93196,-17.716536 17.71654,-17.716536 9.78457,0 17.71653,7.931963 17.71653,17.716536 z"
         sodipodi:ry="17.716536"
         sodipodi:rx="17.716536"
         sodipodi:cy="67.322823"
         sodipodi:cx="191.33858"
         id="path3081-6-5"
         style="fill:#000000;stroke:none;stroke-width:1.11023629000000001;stroke-linecap:round;stroke-linejoin:bevel;stroke-miterlimit:4;stroke-opacity:1;stroke-dasharray:none;stroke-dashoffset:0;display:inline;fill-opacity:1"
         sodipodi:type="arc" />
      <path
         transform="matrix(0.9,0,0,0.9,15.590556,160.86618)"
         d="m 209.05511,67.322823 c 0,9.784572 -7.93196,17.716535 -17.71653,17.716535 -9.78458,0 -17.71654,-7.931963 -17.71654,-17.716535 0,-9.784573 7.93196,-17.716536 17.71654,-17.716536 9.78457,0 17.71653,7.931963 17.71653,17.716536 z"
         sodipodi:ry="17.716536"
         sodipodi:rx="17.716536"
         sodipodi:cy="67.322823"
         sodipodi:cx="191.33858"
         id="path3081-6-0"
         style="fill:#000000;stroke:none;stroke-width:1.11023629000000001;stroke-linecap:round;stroke-linejoin:bevel;stroke-miterlimit:4;stroke-opacity:1;stroke-dasharray:none;stroke-dashoffset:0;display:inline;fill-opacity:1"
         sodipodi:type="arc" />
      <path
         transform="matrix(0.9,0,0,0.9,-28.472436,149.62894)"
         d="m 209.05511,67.322823 c 0,9.784572 -7.93196,17.716535 -17.71653,17.716535 -9.78458,0 -17.71654,-7.931963 -17.71654,-17.716535 0,-9.784573 7.93196,-17.716536 17.71654,-17.716536 9.78457,0 17.71653,7.931963 17.71653,17.716536 z"
         sodipodi:ry="17.716536"
         sodipodi:rx="17.716536"
         sodipodi:cy="67.322823"
         sodipodi:cx="191.33858"
         id="path3081-6-14"
         style="fill:#000000;stroke:none;stroke-width:1.11023629000000001;stroke-linecap:round;stroke-linejoin:bevel;stroke-miterlimit:4;stroke-opacity:1;stroke-dasharray:none;stroke-dashoffset:0;display:inline;fill-opacity:1"
         sodipodi:type="arc" />
      <path
         transform="matrix(0.9,0,0,0.9,-61.021333,117.73917)"
         d="m 209.05511,67.322823 c 0,9.784572 -7.93196,17.716535 -17.71653,17.716535 -9.78458,0 -17.71654,-7.931963 -17.71654,-17.716535 0,-9.784573 7.93196,-17.716536 17.71654,-17.716536 9.78457,0 17.71653,7.931963 17.71653,17.716536 z"
         sodipodi:ry="17.716536"
         sodipodi:rx="17.716536"
         sodipodi:cy="67.322823"
         sodipodi:cx="191.33858"
         id="path3081-6-10"
         style="fill:#000000;stroke:none;stroke-width:1.11023629000000001;stroke-linecap:round;stroke-linejoin:bevel;stroke-miterlimit:4;stroke-opacity:1;stroke-dasharray:none;stroke-dashoffset:0;display:inline;fill-opacity:1"
         sodipodi:type="arc" />
      <path
         transform="matrix(0.9,0,0,0.9,-72.992121,72.283502)"
         d="m 209.05511,67.322823 c 0,9.784572 -7.93196,17.716535 -17.71653,17.716535 -9.78458,0 -17.71654,-7.931963 -17.71654,-17.716535 0,-9.784573 7.93196,-17.716536 17.71654,-17.716536 9.78457,0 17.71653,7.931963 17.71653,17.716536 z"
         sodipodi:ry="17.716536"
         sodipodi:rx="17.716536"
         sodipodi:cy="67.322823"
         sodipodi:cx="191.33858"
         id="path3081-6-103"
         style="fill:#000000;stroke:none;stroke-width:1.11023629000000001;stroke-linecap:round;stroke-linejoin:bevel;stroke-miterlimit:4;stroke-opacity:1;stroke-dasharray:none;stroke-dashoffset:0;display:inline;fill-opacity:1"
         sodipodi:type="arc" />
      <path
         transform="matrix(0.9,0,0,0.9,-61.021332,28.549175)"
         d="m 209.05511,67.322823 c 0,9.784572 -7.93196,17.716535 -17.71653,17.716535 -9.78458,0 -17.71654,-7.931963 -17.71654,-17.716535 0,-9.784573 7.93196,-17.716536 17.71654,-17.716536 9.78457,0 17.71653,7.931963 17.71653,17.716536 z"
         sodipodi:ry="17.716536"
         sodipodi:rx="17.716536"
         sodipodi:cy="67.322823"
         sodipodi:cx="191.33858"
         id="path3081-6-2"
         style="fill:#000000;stroke:none;stroke-width:1.11023629000000001;stroke-linecap:round;stroke-linejoin:bevel;stroke-miterlimit:4;stroke-opacity:1;stroke-dasharray:none;stroke-dashoffset:0;display:inline;fill-opacity:1"
         sodipodi:type="arc" />
    </g>
  </g>
  <g
     inkscape:groupmode="layer"
     id="layer5"
     inkscape:label="Text(Raster)"
     transform="translate(0,17.716498)"
     style="display:inline">
    <g
       id="g4317"
       transform="matrix(3.9201072,0,0,3.9201072,124.30696,84.274096)"
       style="fill:#000000;fill-opacity:1;stroke:none">
      <g
         transform="translate(0,-3)"
         style="fill:#000000;fill-opacity:1;stroke:none;display:none"
         inkscape:label="Image"
         id="layer2-2">
        <image
           width="16.253002"
           height="12.18975"
           xlink:href="file:///home/natronics/Dropbox/Code/Python/NeaLamp/ISS/iss.jpg"
           id="image3047"
           x="2.885488"
           y="1034.0918"
           transform="translate(0,-1030.3622)"
           style="fill:#000000;fill-opacity:1;stroke:none" />
      </g>
      <g
         style="fill:#000000;fill-opacity:1;stroke:none;display:inline"
         transform="translate(0,-1033.3622)"
         id="layer1-1"
         inkscape:label="Layer 1">
        <g
           id="g3067"
           style="fill:#000000;fill-opacity:1;stroke:none">
          <path
             style="fill:#000000;fill-opacity:1;stroke:none"
             d="m 8.7645741,1035.1059 c 0.2346787,0.034 0.7710867,0.017 0.7710867,0.017 l -3.0172955,4.0566 -0.8213748,-0.084 z"
             id="path3050"
             inkscape:connector-curvature="0"
             sodipodi:nodetypes="ccccc" />
          <path
             style="fill:#000000;fill-opacity:1;stroke:none"
             d="m 9.8515236,1035.1807 c 0.2346784,0.034 0.7592334,0.017 0.7592334,0.017 l -2.8394994,4.1039 -0.868787,-0.073 z"
             id="path3050-5"
             inkscape:connector-curvature="0"
             sodipodi:nodetypes="ccccc" />
          <path
             style="fill:#000000;fill-opacity:1;stroke:none"
             d="m 11.091967,1035.3122 c 0.234679,0.034 0.771087,0.028 0.771087,0.028 l -2.6498508,4.1277 -0.8806401,-0.06 z"
             id="path3050-50"
             inkscape:connector-curvature="0"
             sodipodi:nodetypes="ccccc" />
          <path
             style="fill:#000000;fill-opacity:1;stroke:none"
             d="m 16.979161,1039.9792 c -0.05926,-0.024 -2.169109,-0.2607 -2.169109,-0.2607 l 0.177796,-0.6638 2.536554,0.2489 c 0,0 0.0237,-0.3556 0.201501,-0.4149 0.177796,-0.059 0.248915,-0.024 0.308179,-0.095 0.05926,-0.071 0.272621,-0.1659 0.272621,-0.1659 l 0.248914,0.1541 -0.154089,0.237 0.462268,0.4979 0.849582,0.028 c 0,0 -0.165788,0.3477 -0.331382,0.4908 -0.53764,-0.064 -0.467318,0 -0.465446,0.1116 -0.165941,-0.012 -1.024701,-0.1088 -1.024701,-0.1088 z"
             id="path3962"
             inkscape:connector-curvature="0"
             sodipodi:nodetypes="ccccccccccccccc" />
          <path
             style="fill:#000000;fill-opacity:1;stroke:none"
             d="m 12.795032,1039.2325 1.872784,-1.4816 0.01188,0.6756 -1.489489,1.1912 -0.01349,-0.2966 z"
             id="path3906"
             inkscape:connector-curvature="0"
             sodipodi:nodetypes="cccccc" />
          <path
             style="fill:#000000;fill-opacity:1;stroke:none;display:inline"
             d="m 13.180164,1039.7603 1.552831,-1.2449 0.01188,0.6757 -1.18838,0.9348 -0.365099,-0.038 z"
             id="path3906-2"
             inkscape:connector-curvature="0"
             sodipodi:nodetypes="cccccc" />
          <path
             style="fill:#000000;fill-opacity:1;stroke:none"
             d="m 12.253507,1035.3896 c 0.234679,0.034 0.78294,0.017 0.78294,0.017 l -2.507614,4.2105 -0.8924935,-0.071 z"
             id="path3050-4"
             inkscape:connector-curvature="0"
             sodipodi:nodetypes="ccccc" />
          <path
             style="fill:#000000;fill-opacity:1;stroke:none"
             d="m 8.696085,1040.702 c 0.2346786,0.034 0.9607355,0.1229 0.9607355,0.1229 l -3.8944216,6.4271 -1.070289,-0.2378 z"
             id="path3050-1"
             inkscape:connector-curvature="0"
             sodipodi:nodetypes="ccccc" />
          <path
             style="fill:#000000;fill-opacity:1;stroke:none"
             d="m 7.3333924,1040.5382 c 0.2346786,0.034 0.9370294,0.075 0.9370294,0.075 l -4.0485114,6.2613 -0.9517584,-0.2971 z"
             id="path3050-9"
             inkscape:connector-curvature="0"
             sodipodi:nodetypes="ccccc" />
          <path
             style="fill:#000000;fill-opacity:1;stroke:none"
             d="m 5.8677406,1040.2978 c 0.2346786,0.034 0.8777642,0.1118 0.8777642,0.1118 l -4.2381602,5.9292 -0.8332279,-0.2497 z"
             id="path3050-41"
             inkscape:connector-curvature="0"
             sodipodi:nodetypes="ccccc" />
          <path
             style="fill:#000000;fill-opacity:1;stroke:none"
             d="m 4.6157929,1040.1539 c 0.2346786,0.034 0.8422051,0.088 0.8422051,0.088 l -4.2381604,5.7515 -0.71469727,-0.2497 z"
             id="path3050-43"
             inkscape:connector-curvature="0"
             sodipodi:nodetypes="ccccc" />
          <path
             style="fill:#000000;fill-opacity:1;stroke:none;display:inline"
             d="m 13.648241,1040.1494 1.049194,-0.8873 0.01188,0.6756 -0.373432,0.2889 z"
             id="path3906-9"
             inkscape:connector-curvature="0"
             sodipodi:nodetypes="ccccc" />
          <path
             style="fill:#000000;fill-opacity:1;stroke:none"
             d="m 14.398759,1042.3261 c 0,0 -1.094045,-0.2015 -1.105898,-0.1896 -0.40891,0.031 -0.473942,1.1977 -0.213355,1.1853 l 1.244571,0.1896 0.11853,-0.1185 0.05927,0.095 c 0,0 0.260766,0.3556 0.568946,0.249 0.308179,-0.1067 0.343739,-0.249 0.343739,-0.249 0,0 -0.01188,0.1541 0.04741,0.1778 0.05926,0.024 2.560259,0.4149 2.560259,0.4149 0,0 0.15409,-0.2134 0.165943,-0.3319 0.01188,-0.1185 0.08298,-0.024 0.142236,-0.024 0.05926,0 0.320034,-0.4741 0.320034,-0.4741 l -0.106678,-0.5216 -0.403005,-0.3081 0,-0.166 0.225209,-0.071 0.106678,-0.083 0.36388,-0.027 0.0083,-0.1591 -0.04196,-0.1317 -0.365794,-0.061 -0.08298,0.071 -0.22921,-0.078 -0.434566,0.1019 c 0,0 -0.213356,-0.059 -0.331887,-0.047 -0.118527,0.012 -0.308179,0.095 -0.403003,0.1304 -0.09483,0.036 -0.03556,0.012 -0.05926,0.1185 -0.0237,0.1067 -0.0237,0.6875 -0.0237,0.6875 l -0.829715,-0.1185 0.859049,-1.0621 -1.250215,-0.1465 -0.01444,1.1726 -0.391058,0.1292 -0.442543,-0.02 -0.293183,-0.096 z m 3.02841,-1.7261 0.215759,-0.3713 -0.01188,-0.1778 c -0.53422,-0.026 -0.274797,-0.024 -0.817561,-0.079 -0.05926,0.012 -0.272916,0.3395 -0.272916,0.3395 0,0 -0.675625,-0.1541 -0.73489,-0.1067 -0.05926,0.047 -0.239679,0.1766 -0.239679,0.1766"
             id="path3886"
             inkscape:connector-curvature="0"
             sodipodi:nodetypes="ccccccsccccscccccccccccccccccccccccccccccccc" />
          <path
             style="fill:#000000;fill-opacity:1;stroke:none"
             d="m 12.331518,1039.9976 -0.03431,-0.7888 0.877126,0.1067 0.02356,0.7579 m 0.02963,0.9529 0.01793,0.5768 -0.817863,-0.1185 -0.03592,-0.5983"
             id="path3904"
             inkscape:connector-curvature="0"
             sodipodi:nodetypes="cccccccc" />
          <path
             style="fill:#000000;fill-opacity:1;stroke:none"
             d="m 19.456449,1040.0385 0.936393,-1.6831 -0.02371,0.6874 -0.52256,1.0065 z"
             id="path3935"
             inkscape:connector-curvature="0"
             sodipodi:nodetypes="ccccc" />
          <path
             style="fill:#000000;fill-opacity:1;stroke:none;display:inline"
             d="m 19.940632,1040.0929 0.398871,-0.8961 -0.02371,0.6875 -0.432973,0.9424 z"
             id="path3935-1"
             inkscape:connector-curvature="0"
             sodipodi:nodetypes="ccccc" />
          <path
             style="fill:#000000;fill-opacity:1;stroke:none;display:inline"
             d="m 19.884497,1040.9099 0.39574,-0.8833 -0.05928,0.6164 -0.151118,0.2731 z"
             id="path3935-6"
             inkscape:connector-curvature="0"
             sodipodi:nodetypes="ccccc" />
          <path
             style="fill:#000000;fill-opacity:1;stroke:none"
             d="m 18.885343,1040.7837 0.03772,-0.7808 1.019363,0.071 -0.07623,0.801 m -0.04807,1.0027 -0.02978,0.6498 -0.936392,-0.1659 0.0075,-0.5996"
             id="path3933"
             inkscape:connector-curvature="0"
             sodipodi:nodetypes="cccccccc" />
          <path
             style="fill:#000000;fill-opacity:1;stroke:none"
             d="m 6.4299412,1039.2918 -0.3674449,0.4267 0.3081796,0.3674 22.6274841,3.0462 0.165943,-0.6519 -0.213355,-0.5097 z"
             id="path3884"
             inkscape:connector-curvature="0"
             sodipodi:nodetypes="ccccccc" />
          <path
             style="fill:#000000;fill-opacity:1;stroke:none"
             d="m 14.418901,1042.338 c -0.04159,0.3898 1.047218,0.4046 1.197158,0.1422 0,0 0.0064,-1.0292 0.0064,-1.1122 -0.652382,-0.1 -0.512566,-0.044 -1.209011,-0.1818 -0.01185,0.083 0.0055,1.1518 0.0055,1.1518 z"
             id="path3896"
             inkscape:connector-curvature="0"
             sodipodi:nodetypes="cccccc" />
          <path
             style="fill:#000000;fill-opacity:1;stroke:none"
             d="m 14.513725,1043.1559 c 0.118531,-0.2253 0.438563,-0.1778 0.497828,-0.083 0.118528,0.1185 0.177796,0.237 0.118528,0.32 -0.04741,0.2015 -0.308179,0.4741 -0.308179,0.4741 -0.178959,0.1572 -0.464721,-0.063 -0.343739,-0.2726 0.04741,-0.024 0.05927,-0.1185 0.05927,-0.1185 z"
             id="path3898"
             inkscape:connector-curvature="0"
             sodipodi:nodetypes="ccccccc" />
          <path
             style="fill:#000000;fill-opacity:1;stroke:none"
             d="m 16.398368,1044.033 -0.794156,-0.095 0.02371,0.2964 0.806007,0.095 -0.106678,0.1422 c 0.176726,0.2833 0.483383,0.1847 0.580801,0.059 -0.07111,-0.095 -0.04741,-0.1778 -0.04741,-0.1778 l 0.782301,0.1778 0.01188,-0.3082 -0.794154,-0.1304 c -0.102491,-0.177 -0.376344,-0.2906 -0.462301,-0.059 z"
             id="path3900"
             inkscape:connector-curvature="0"
             sodipodi:nodetypes="ccccccccccc" />
          <path
             style="fill:#000000;fill-opacity:1;stroke:none"
             d="m 18.342263,1043.7367 -0.213356,0.5807 0.09483,0.1304 1.220865,0.1897 0.106677,-0.3556 0.130378,0 0.308179,0.1659 c 0,0 0.177796,-0.035 0.367445,-0.095 0.189649,-0.059 0.367445,-0.095 0.296326,-0.2134 -0.07111,-0.1185 -0.213355,-0.3081 -0.213355,-0.3081 l -0.04741,-0.2015 0.01188,-0.1541 0.343739,0.047 -0.42671,-0.1422 -0.130392,0.2489 -0.995656,-0.4742 -0.05926,0.071 -0.995657,0.059 -0.01188,0.1304 1.126041,-0.083 0.61637,0.249 c 0,0 -0.07111,0.1303 -0.08298,0.2015 -0.01188,0.071 -0.09483,0.2252 -0.09483,0.2252 0,0 -0.106678,-0.1304 -0.165943,-0.1304 -0.05926,0 -1.185305,-0.1422 -1.185305,-0.1422 z"
             id="path3902"
             inkscape:connector-curvature="0" />
          <path
             style="fill:#000000;fill-opacity:1;stroke:none"
             d="m 17.820728,1038.0472 -0.01188,0.6993 3.25959,-0.4978 0.0237,-0.6756 z"
             id="path4028"
             inkscape:connector-curvature="0" />
          <path
             style="fill:#000000;fill-opacity:1;stroke:none"
             d="m 22.739745,1040.8919 1.220866,0.1067 0.699331,-5.1679 -1.054923,-0.047 z"
             id="path4049"
             inkscape:connector-curvature="0"
             sodipodi:nodetypes="ccccc" />
          <path
             style="fill:#000000;fill-opacity:1;stroke:none;display:inline"
             d="m 24.553263,1041.0703 1.256425,0.094 0.379299,-5.2508 -1.07863,-0.036 z"
             id="path4049-8"
             inkscape:connector-curvature="0"
             sodipodi:nodetypes="ccccc" />
          <path
             style="fill:#000000;fill-opacity:1;stroke:none;display:inline"
             d="m 20.973351,1050.8489 1.656698,0.2068 1.101636,-8.3529 -1.222549,-0.1482 z"
             id="path4049-1"
             inkscape:connector-curvature="0"
             sodipodi:nodetypes="ccccc" />
          <path
             style="fill:#000000;fill-opacity:1;stroke:none;display:inline"
             d="m 23.326996,1051.1585 1.690221,0.1397 0.638382,-8.4386 -1.315691,-0.082 z"
             id="path4049-3"
             inkscape:connector-curvature="0"
             sodipodi:nodetypes="ccccc" />
          <path
             style="fill:#000000;fill-opacity:1;stroke:none;display:inline"
             d="m 26.186603,1051.5272 1.522595,0.039 0.06235,-8.3866 -1.1555,-0.1145 z"
             id="path4049-5"
             inkscape:connector-curvature="0"
             sodipodi:nodetypes="ccccc" />
          <path
             style="fill:#000000;fill-opacity:1;stroke:none;display:inline"
             d="m 28.329275,1051.5984 1.623171,0.2068 -0.373486,-8.5207 -1.222549,-0.081 z"
             id="path4049-32"
             inkscape:connector-curvature="0"
             sodipodi:nodetypes="ccccc" />
          <path
             style="fill:#000000;fill-opacity:1;stroke:none;display:inline"
             d="m 26.746079,1041.3075 1.137895,0.1535 0.201501,-5.4051 -1.137893,-0.048 z"
             id="path4049-9"
             inkscape:connector-curvature="0"
             sodipodi:nodetypes="ccccc" />
          <path
             style="fill:#000000;fill-opacity:1;stroke:none;display:inline"
             d="m 28.358093,1041.4852 1.149748,0.094 0.296328,-5.4642 -1.173453,-0.06 z"
             id="path4049-2"
             inkscape:connector-curvature="0"
             sodipodi:nodetypes="ccccc" />
        </g>
      </g>
    </g>
    <g
       style="font-size:25px;font-style:normal;font-variant:normal;font-weight:500;font-stretch:normal;text-align:start;line-height:125%;letter-spacing:0px;word-spacing:0px;writing-mode:lr-tb;text-anchor:start;fill:#000000;fill-opacity:1;stroke:none;font-family:Knockout;-inkscape-font-specification:Knockout Medium"
       id="text4355"
       transform="translate(0,-12)">
      <path
         d="m 159.40353,196.88191 0,-16.65 -1.825,0 0,16.65 1.825,0"
         style="fill:#000000;fill-opacity:1;stroke:none"
         id="path3159"
         inkscape:connector-curvature="0" />
      <path
         d="m 167.19064,193.50691 c 0,-1.9 -0.9,-3.65 -2.35,-5.525 -1.475,-1.95 -2.1,-3.075 -2.1,-4.85 0,-0.975 0.475,-1.525 1.35,-1.525 0.9,0 1.325,0.675 1.325,1.825 l 0,1.825 1.7,0 0,-1.975 c 0,-1.95 -1.175,-3.3 -2.975,-3.3 -2.12499,0 -3.15,1.55 -3.15,3.625 0,1.95 1.375,4.175 2.55,5.675 1.3,1.675 1.9,3.025 1.9,4.625 0,1.05 -0.45,1.7 -1.45,1.7 -0.875,0 -1.4,-0.725 -1.4,-1.825 l 0,-1.825 -1.75,0 0,1.9 c 0,1.925 1.22501,3.275 3.175,3.275 1.525,0 3.175,-0.975 3.175,-3.625"
         style="fill:#000000;fill-opacity:1;stroke:none"
         id="path3161"
         inkscape:connector-curvature="0" />
      <path
         d="m 174.61252,193.50691 c 0,-1.9 -0.9,-3.65 -2.35,-5.525 -1.475,-1.95 -2.1,-3.075 -2.1,-4.85 0,-0.975 0.475,-1.525 1.35,-1.525 0.9,0 1.325,0.675 1.325,1.825 l 0,1.825 1.7,0 0,-1.975 c 0,-1.95 -1.175,-3.3 -2.975,-3.3 -2.125,0 -3.15,1.55 -3.15,3.625 0,1.95 1.375,4.175 2.55,5.675 1.3,1.675 1.9,3.025 1.9,4.625 0,1.05 -0.45,1.7 -1.45,1.7 -0.875,0 -1.4,-0.725 -1.4,-1.825 l 0,-1.825 -1.75,0 0,1.9 c 0,1.925 1.225,3.275 3.175,3.275 1.525,0 3.175,-0.975 3.175,-3.625"
         style="fill:#000000;fill-opacity:1;stroke:none"
         id="path3163"
         inkscape:connector-curvature="0" />
      <path
         d="m 185.59025,196.88191 0,-16.65 -1.7,0 0,11.25 -0.75,-2.7 -2.575,-8.55 -1.625,0 0,16.65 1.7,0 0,-11.1 0.8,2.675 2.825,8.425 1.325,0"
         style="fill:#000000;fill-opacity:1;stroke:none"
         id="path3165"
         inkscape:connector-curvature="0" />
      <path
         d="m 193.66252,193.65691 0,-10.2 c 0,-2 -1.25,-3.475 -3.2,-3.475 -1.95,0 -3.2,1.475 -3.2,3.475 l 0,10.2 c 0,2.025 1.25,3.475 3.2,3.475 1.95,0 3.2,-1.45 3.2,-3.475 m -1.775,0.25 c 0,0.875 -0.5,1.5 -1.425,1.5 -0.925,0 -1.4,-0.625 -1.4,-1.5 l 0,-10.7 c 0,-0.85 0.475,-1.5 1.4,-1.5 0.925,0 1.425,0.65 1.425,1.5 l 0,10.7"
         style="fill:#000000;fill-opacity:1;stroke:none"
         id="path3167"
         inkscape:connector-curvature="0" />
      <path
         d="m 200.8965,181.93191 0,-1.7 -6.15,0 0,1.7 2.225,0 0,14.95 1.775,0 0,-14.95 2.15,0"
         style="fill:#000000;fill-opacity:1;stroke:none"
         id="path3169"
         inkscape:connector-curvature="0" />
      <path
         d="m 203.93478,196.88191 0,-16.65 -1.825,0 0,16.65 1.825,0"
         style="fill:#000000;fill-opacity:1;stroke:none"
         id="path3171"
         inkscape:connector-curvature="0" />
      <path
         d="m 210.94689,181.88191 0,-1.65 -5.175,0 0,16.65 1.825,0 0,-7.65 2.625,0 0,-1.625 -2.625,0 0,-5.725 3.35,0"
         style="fill:#000000;fill-opacity:1;stroke:none"
         id="path3173"
         inkscape:connector-curvature="0" />
      <path
         d="m 218.36721,180.23191 -1.725,0 -1.775,7.75 -1.775,-7.75 -1.8,0 2.575,10.075 0,6.575 1.8,0 0,-6.575 2.7,-10.075"
         style="fill:#000000;fill-opacity:1;stroke:none"
         id="path3175"
         inkscape:connector-curvature="0" />
    </g>
    <g
       id="g3840"
       style="stroke-width:1.25;stroke-miterlimit:4;stroke-dasharray:none"
       transform="translate(-4.4094488e-6,-6.456693)">
      <path
         transform="translate(0,-17.716498)"
         inkscape:connector-curvature="0"
         id="path3836"
         d="m 187.79528,44.976367 0,-13.086614 -3.54331,2.456693"
         style="fill:none;stroke:#000000;stroke-width:1.25;stroke-linecap:butt;stroke-linejoin:round;stroke-miterlimit:4;stroke-opacity:1;stroke-dasharray:none"
         sodipodi:nodetypes="ccc" />
      <path
         transform="translate(0,-17.716498)"
         inkscape:connector-curvature="0"
         id="path3838"
         d="m 187.79528,31.889753 3.5433,2.456693"
         style="fill:none;stroke:#000000;stroke-width:1.25;stroke-linecap:butt;stroke-linejoin:miter;stroke-miterlimit:4;stroke-opacity:1;stroke-dasharray:none"
         sodipodi:nodetypes="cc" />
    </g>
  </g>
</svg>
