<?xml version="1.0" encoding="UTF-8" standalone="no"?>
<!-- Created with Inkscape (http://www.inkscape.org/) -->

<svg
   xmlns:dc="http://purl.org/dc/elements/1.1/"
   xmlns:cc="http://creativecommons.org/ns#"
   xmlns:rdf="http://www.w3.org/1999/02/22-rdf-syntax-ns#"
   xmlns:svg="http://www.w3.org/2000/svg"
   xmlns="http://www.w3.org/2000/svg"
   xmlns:xlink="http://www.w3.org/1999/xlink"
   xmlns:sodipodi="http://sodipodi.sourceforge.net/DTD/sodipodi-0.dtd"
   xmlns:inkscape="http://www.inkscape.org/namespaces/inkscape"
   width="2160"
   height="1620"
   id="svg2"
   version="1.1"
   inkscape:version="0.48.1 r9760"
   sodipodi:docname="faceplate_print.svg">
  <defs
     id="defs4" />
  <sodipodi:namedview
     id="base"
     pagecolor="#ffffff"
     bordercolor="#666666"
     borderopacity="1.0"
     inkscape:pageopacity="0.0"
     inkscape:pageshadow="2"
     inkscape:zoom="0.32469136"
     inkscape:cx="1080"
     inkscape:cy="810"
     inkscape:document-units="mm"
     inkscape:current-layer="layer5"
     showgrid="true"
     units="in"
     borderlayer="true"
     inkscape:showpageshadow="false"
     inkscape:window-width="1280"
     inkscape:window-height="718"
     inkscape:window-x="0"
     inkscape:window-y="25"
     inkscape:window-maximized="1">
    <inkscape:grid
       type="xygrid"
       id="grid3008"
       empspacing="4"
       visible="true"
       enabled="true"
       snapvisiblegridlinesonly="true"
       units="mm"
       spacingx="1mm"
       spacingy="1mm" />
  </sodipodi:namedview>
  <metadata
     id="metadata7">
    <rdf:RDF>
      <cc:Work
         rdf:about="">
        <dc:format>image/svg+xml</dc:format>
        <dc:type
           rdf:resource="http://purl.org/dc/dcmitype/StillImage" />
        <dc:title></dc:title>
      </cc:Work>
    </rdf:RDF>
  </metadata>
  <g
     inkscape:label="Board"
     inkscape:groupmode="layer"
     id="layer1"
     transform="translate(0,567.6377)"
     style="display:none"
     sodipodi:insensitive="true">
    <image
       y="740.44305"
       x="-22.501968"
       id="image3278"
       xlink:href="file:///home/natronics/open-notify/Code/ISS-Notify-Hardware/board.png"
       height="322.69476"
       width="411.02362"
       style="opacity:0.39361704" />
  </g>
  <g
     inkscape:groupmode="layer"
     id="layer2"
     inkscape:label="Boarder(CUT)"
     transform="translate(0,1336.5353)"
     style="display:inline" />
  <g
     inkscape:groupmode="layer"
     id="layer3"
     inkscape:label="Holes(CUT)"
     transform="translate(0,1336.5353)"
     style="display:inline" />
  <g
     inkscape:groupmode="layer"
     id="layer4"
     inkscape:label="Light(Raster)"
     transform="translate(0,1336.5353)"
     style="display:inline" />
  <g
     inkscape:groupmode="layer"
     id="layer5"
     inkscape:label="Text(Raster)"
     transform="translate(0,1336.5353)"
     style="display:inline">
    <g
       transform="translate(21.41311,-1292.5285)"
       style="display:inline"
       id="g3984">
      <path
         sodipodi:nodetypes="zsssssssssssssssz"
         inkscape:connector-curvature="0"
         id="path3778"
         d="m 14.173228,279.92129 c 3.543307,0 215.438592,0 226.771652,0 7.08662,0 10.62992,-24.80315 17.71654,-24.80315 21.25984,0 37.05866,0 53.1496,0 7.08662,0 10.62992,24.80315 17.71654,24.80315 14.63423,0 30.78115,0 31.88976,0 5.31496,-10e-6 6.93335,-2.55018 6.93335,-7.86514 0,-0.87393 0.15327,-6.15143 0.15327,-31.11124 0,-7.08662 -21.25985,-10.62993 -21.25985,-17.71654 0,-16.50243 -0.15327,-50.38482 -0.15327,-57.47143 0,-5.82375 21.25985,-10.62992 21.25985,-17.71654 0,-72.66865 1e-5,-148.583666 0,-152.362202 -10e-6,-5.314961 -1.77166,-7.086614 -7.08662,-7.086614 -17.71654,0 -343.700782,0 -347.244089,0 -5.31496,0 -7.086614,1.771653 -7.086614,7.086614 0,3.543307 0,272.834642 0,276.377952 0,5.31496 3.696574,7.86514 7.239881,7.86514 z"
         style="fill:none;stroke:#ff0000;stroke-width:0.70875001;stroke-linecap:butt;stroke-linejoin:miter;stroke-miterlimit:4;stroke-opacity:1;stroke-dasharray:none;display:inline" />
      <path
         transform="matrix(0.8,0,0,1,14.728623,-7.865111)"
         d="m 30.11811,21.259844 c 0,3.913829 -3.965982,7.086614 -8.858268,7.086614 -4.892286,0 -8.858268,-3.172785 -8.858268,-7.086614 0,-3.913829 3.965982,-7.086614 8.858268,-7.086614 4.892286,0 8.858268,3.172785 8.858268,7.086614 z"
         sodipodi:ry="7.0866141"
         sodipodi:rx="8.8582678"
         sodipodi:cy="21.259844"
         sodipodi:cx="21.259842"
         id="path3783"
         style="fill:none;stroke:#ff0000;stroke-width:1.05641007;stroke-miterlimit:4;stroke-opacity:1;stroke-dasharray:none;display:inline"
         sodipodi:type="arc" />
      <path
         transform="matrix(0.79999988,0,0,1,326.53964,-7.865111)"
         d="m 30.11811,21.259844 c 0,3.913829 -3.965982,7.086614 -8.858268,7.086614 -4.892286,0 -8.858268,-3.172785 -8.858268,-7.086614 0,-3.913829 3.965982,-7.086614 8.858268,-7.086614 4.892286,0 8.858268,3.172785 8.858268,7.086614 z"
         sodipodi:ry="7.0866141"
         sodipodi:rx="8.8582678"
         sodipodi:cy="21.259844"
         sodipodi:cx="21.259842"
         id="path3783-3"
         style="fill:none;stroke:#ff0000;stroke-width:1.05641007;stroke-miterlimit:4;stroke-opacity:1;stroke-dasharray:none;display:inline"
         sodipodi:type="arc" />
      <path
         transform="matrix(0.79999988,0,0,1,326.53964,233.07977)"
         d="m 30.11811,21.259844 c 0,3.913829 -3.965982,7.086614 -8.858268,7.086614 -4.892286,0 -8.858268,-3.172785 -8.858268,-7.086614 0,-3.913829 3.965982,-7.086614 8.858268,-7.086614 4.892286,0 8.858268,3.172785 8.858268,7.086614 z"
         sodipodi:ry="7.0866141"
         sodipodi:rx="8.8582678"
         sodipodi:cy="21.259844"
         sodipodi:cx="21.259842"
         id="path3783-5"
         style="fill:none;stroke:#ff0000;stroke-width:1.05641007;stroke-miterlimit:4;stroke-opacity:1;stroke-dasharray:none;display:inline"
         sodipodi:type="arc" />
      <path
         transform="matrix(0.8,0,0,1,14.728623,233.07977)"
         d="m 30.11811,21.259844 c 0,3.913829 -3.965982,7.086614 -8.858268,7.086614 -4.892286,0 -8.858268,-3.172785 -8.858268,-7.086614 0,-3.913829 3.965982,-7.086614 8.858268,-7.086614 4.892286,0 8.858268,3.172785 8.858268,7.086614 z"
         sodipodi:ry="7.0866141"
         sodipodi:rx="8.8582678"
         sodipodi:cy="21.259844"
         sodipodi:cx="21.259842"
         id="path3783-6"
         style="fill:none;stroke:#ff0000;stroke-width:1.05641007;stroke-miterlimit:4;stroke-opacity:1;stroke-dasharray:none;display:inline"
         sodipodi:type="arc" />
      <path
         transform="matrix(0.8,0,0,0.99999999,14.728623,202.96166)"
         d="m 30.11811,21.259844 c 0,3.913829 -3.965982,7.086614 -8.858268,7.086614 -4.892286,0 -8.858268,-3.172785 -8.858268,-7.086614 0,-3.913829 3.965982,-7.086614 8.858268,-7.086614 4.892286,0 8.858268,3.172785 8.858268,7.086614 z"
         sodipodi:ry="7.0866141"
         sodipodi:rx="8.8582678"
         sodipodi:cy="21.259844"
         sodipodi:cx="21.259842"
         id="path3783-5-5"
         style="fill:none;stroke:#ff0000;stroke-width:1.05641007;stroke-miterlimit:4;stroke-opacity:1;stroke-dasharray:none;display:inline"
         sodipodi:type="arc" />
      <path
         transform="matrix(1.2500001,0,0,1.0416667,-33.814697,-13.770629)"
         d="m 248.0315,141.73228 c 0,46.96595 -31.72785,85.03937 -70.86614,85.03937 -39.13829,0 -70.86614,-38.07342 -70.86614,-85.03937 0,-46.965941 31.72785,-85.039363 70.86614,-85.039363 39.13829,0 70.86614,38.073422 70.86614,85.039363 z"
         sodipodi:ry="85.039368"
         sodipodi:rx="70.866142"
         sodipodi:cy="141.73228"
         sodipodi:cx="177.16536"
         id="path3926"
         style="fill:none;stroke:#000000;stroke-width:1.55224562;stroke-miterlimit:4;stroke-opacity:0.87843137;stroke-dasharray:1.55224564, 1.55224564;stroke-dashoffset:0;display:inline"
         sodipodi:type="arc" />
      <g
         style="fill:#000000;fill-opacity:1;stroke:none;display:inline"
         id="g3182">
        <path
           sodipodi:type="arc"
           style="fill:#000000;fill-opacity:1;stroke:none"
           id="path3081"
           sodipodi:cx="191.33858"
           sodipodi:cy="67.322823"
           sodipodi:rx="17.716536"
           sodipodi:ry="17.716536"
           d="m 209.05511,67.322823 c 0,9.784572 -7.93196,17.716535 -17.71653,17.716535 -9.78458,0 -17.71654,-7.931963 -17.71654,-17.716535 0,-9.784573 7.93196,-17.716536 17.71654,-17.716536 9.78457,0 17.71653,7.931963 17.71653,17.716536 z"
           transform="matrix(0.9,0,0,0.9,15.590556,-16.299175)" />
        <path
           sodipodi:type="arc"
           style="fill:#000000;fill-opacity:1;stroke:none;display:inline"
           id="path3081-6"
           sodipodi:cx="191.33858"
           sodipodi:cy="67.322823"
           sodipodi:rx="17.716536"
           sodipodi:ry="17.716536"
           d="m 209.05511,67.322823 c 0,9.784572 -7.93196,17.716535 -17.71653,17.716535 -9.78458,0 -17.71654,-7.931963 -17.71654,-17.716535 0,-9.784573 7.93196,-17.716536 17.71654,-17.716536 9.78457,0 17.71653,7.931963 17.71653,17.716536 z"
           transform="matrix(0.9,0,0,0.9,59.451108,-3.3405887)" />
        <path
           sodipodi:type="arc"
           style="fill:#000000;fill-opacity:1;stroke:none;display:inline"
           id="path3081-5"
           sodipodi:cx="191.33858"
           sodipodi:cy="67.322823"
           sodipodi:rx="17.716536"
           sodipodi:ry="17.716536"
           d="m 209.05511,67.322823 c 0,9.784572 -7.93196,17.716535 -17.71653,17.716535 -9.78458,0 -17.71654,-7.931963 -17.71654,-17.716535 0,-9.784573 7.93196,-17.716536 17.71654,-17.716536 9.78457,0 17.71653,7.931963 17.71653,17.716536 z"
           transform="matrix(0.9,0,0,0.9,-28.346209,-3.3405887)" />
        <path
           sodipodi:type="arc"
           style="fill:#000000;fill-opacity:1;stroke:none;display:inline"
           id="path3081-6-1"
           sodipodi:cx="191.33858"
           sodipodi:cy="67.322823"
           sodipodi:rx="17.716536"
           sodipodi:ry="17.716536"
           d="m 209.05511,67.322823 c 0,9.784572 -7.93196,17.716535 -17.71653,17.716535 -9.78458,0 -17.71654,-7.931963 -17.71654,-17.716535 0,-9.784573 7.93196,-17.716536 17.71654,-17.716536 9.78457,0 17.71653,7.931963 17.71653,17.716536 z"
           transform="matrix(0.9,0,0,0.9,91.948192,28.776017)" />
        <path
           sodipodi:type="arc"
           style="fill:#000000;fill-opacity:1;stroke:none;display:inline"
           id="path3081-6-13"
           sodipodi:cx="191.33858"
           sodipodi:cy="67.322823"
           sodipodi:rx="17.716536"
           sodipodi:ry="17.716536"
           d="m 209.05511,67.322823 c 0,9.784572 -7.93196,17.716535 -17.71653,17.716535 -9.78458,0 -17.71654,-7.931963 -17.71654,-17.716535 0,-9.784573 7.93196,-17.716536 17.71654,-17.716536 9.78457,0 17.71653,7.931963 17.71653,17.716536 z"
           transform="matrix(0.9,0,0,0.9,103.28726,72.612167)" />
        <path
           sodipodi:type="arc"
           style="fill:#000000;fill-opacity:1;stroke:none;display:inline"
           id="path3081-6-3"
           sodipodi:cx="191.33858"
           sodipodi:cy="67.322823"
           sodipodi:rx="17.716536"
           sodipodi:ry="17.716536"
           d="m 209.05511,67.322823 c 0,9.784572 -7.93196,17.716535 -17.71653,17.716535 -9.78458,0 -17.71654,-7.931963 -17.71654,-17.716535 0,-9.784573 7.93196,-17.716536 17.71654,-17.716536 9.78457,0 17.71653,7.931963 17.71653,17.716536 z"
           transform="matrix(0.9,0,0,0.9,91.89638,117.53673)" />
        <path
           sodipodi:type="arc"
           style="fill:#000000;fill-opacity:1;stroke:none;display:inline"
           id="path3081-6-5"
           sodipodi:cx="191.33858"
           sodipodi:cy="67.322823"
           sodipodi:rx="17.716536"
           sodipodi:ry="17.716536"
           d="m 209.05511,67.322823 c 0,9.784572 -7.93196,17.716535 -17.71653,17.716535 -9.78458,0 -17.71654,-7.931963 -17.71654,-17.716535 0,-9.784573 7.93196,-17.716536 17.71654,-17.716536 9.78457,0 17.71653,7.931963 17.71653,17.716536 z"
           transform="matrix(0.9,0,0,0.9,59.907801,148.74476)" />
        <path
           sodipodi:type="arc"
           style="fill:#000000;fill-opacity:1;stroke:none;display:inline"
           id="path3081-6-0"
           sodipodi:cx="191.33858"
           sodipodi:cy="67.322823"
           sodipodi:rx="17.716536"
           sodipodi:ry="17.716536"
           d="m 209.05511,67.322823 c 0,9.784572 -7.93196,17.716535 -17.71653,17.716535 -9.78458,0 -17.71654,-7.931963 -17.71654,-17.716535 0,-9.784573 7.93196,-17.716536 17.71654,-17.716536 9.78457,0 17.71653,7.931963 17.71653,17.716536 z"
           transform="matrix(0.9,0,0,0.9,15.590556,160.86618)" />
        <path
           sodipodi:type="arc"
           style="fill:#000000;fill-opacity:1;stroke:none;display:inline"
           id="path3081-6-14"
           sodipodi:cx="191.33858"
           sodipodi:cy="67.322823"
           sodipodi:rx="17.716536"
           sodipodi:ry="17.716536"
           d="m 209.05511,67.322823 c 0,9.784572 -7.93196,17.716535 -17.71653,17.716535 -9.78458,0 -17.71654,-7.931963 -17.71654,-17.716535 0,-9.784573 7.93196,-17.716536 17.71654,-17.716536 9.78457,0 17.71653,7.931963 17.71653,17.716536 z"
           transform="matrix(0.9,0,0,0.9,-28.472436,149.62894)" />
        <path
           sodipodi:type="arc"
           style="fill:#000000;fill-opacity:1;stroke:none;display:inline"
           id="path3081-6-10"
           sodipodi:cx="191.33858"
           sodipodi:cy="67.322823"
           sodipodi:rx="17.716536"
           sodipodi:ry="17.716536"
           d="m 209.05511,67.322823 c 0,9.784572 -7.93196,17.716535 -17.71653,17.716535 -9.78458,0 -17.71654,-7.931963 -17.71654,-17.716535 0,-9.784573 7.93196,-17.716536 17.71654,-17.716536 9.78457,0 17.71653,7.931963 17.71653,17.716536 z"
           transform="matrix(0.9,0,0,0.9,-61.021333,117.73917)" />
        <path
           sodipodi:type="arc"
           style="fill:#000000;fill-opacity:1;stroke:none;display:inline"
           id="path3081-6-103"
           sodipodi:cx="191.33858"
           sodipodi:cy="67.322823"
           sodipodi:rx="17.716536"
           sodipodi:ry="17.716536"
           d="m 209.05511,67.322823 c 0,9.784572 -7.93196,17.716535 -17.71653,17.716535 -9.78458,0 -17.71654,-7.931963 -17.71654,-17.716535 0,-9.784573 7.93196,-17.716536 17.71654,-17.716536 9.78457,0 17.71653,7.931963 17.71653,17.716536 z"
           transform="matrix(0.9,0,0,0.9,-72.992121,72.283502)" />
        <path
           sodipodi:type="arc"
           style="fill:#000000;fill-opacity:1;stroke:none;display:inline"
           id="path3081-6-2"
           sodipodi:cx="191.33858"
           sodipodi:cy="67.322823"
           sodipodi:rx="17.716536"
           sodipodi:ry="17.716536"
           d="m 209.05511,67.322823 c 0,9.784572 -7.93196,17.716535 -17.71653,17.716535 -9.78458,0 -17.71654,-7.931963 -17.71654,-17.716535 0,-9.784573 7.93196,-17.716536 17.71654,-17.716536 9.78457,0 17.71653,7.931963 17.71653,17.716536 z"
           transform="matrix(0.9,0,0,0.9,-61.021332,28.549175)" />
      </g>
      <g
         id="text3929"
         style="font-size:8px;font-style:normal;font-variant:normal;font-weight:normal;font-stretch:normal;text-align:start;line-height:125%;letter-spacing:0px;word-spacing:0px;writing-mode:lr-tb;text-anchor:start;fill:#000000;fill-opacity:1;stroke:none;font-family:Futura LT Book;-inkscape-font-specification:'Futura LT Book,'">
        <path
           inkscape:connector-curvature="0"
           id="path3185"
           style="fill:#000000;fill-opacity:1"
           d="m 16.421228,99.483943 c -0.197335,4e-6 -0.378668,0.03734 -0.544,0.112 -0.165335,0.07467 -0.306668,0.176003 -0.424,0.304 -0.117334,0.122667 -0.208001,0.269337 -0.272,0.439997 -0.064,0.16534 -0.096,0.34401 -0.096,0.536 -1e-6,0.192 0.032,0.37334 0.096,0.544 0.064,0.16534 0.154666,0.312 0.272,0.44 0.117332,0.128 0.258665,0.22934 0.424,0.304 0.165332,0.0693 0.346665,0.104 0.544,0.104 0.197331,0 0.378664,-0.0347 0.544,-0.104 0.165331,-0.0747 0.306664,-0.176 0.424,-0.304 0.11733,-0.128 0.207997,-0.27466 0.272,-0.44 0.064,-0.17066 0.096,-0.352 0.096,-0.544 -3e-6,-0.19199 -0.032,-0.37066 -0.096,-0.536 -0.064,-0.17066 -0.15467,-0.31733 -0.272,-0.439997 -0.117336,-0.127997 -0.258669,-0.22933 -0.424,-0.304 -0.165336,-0.07466 -0.346669,-0.111996 -0.544,-0.112 m 0,3.375997 c -0.272002,0 -0.528001,-0.0507 -0.768,-0.152 -0.240001,-0.10133 -0.450667,-0.24 -0.632,-0.416 -0.176,-0.18133 -0.317334,-0.392 -0.424,-0.632 -0.101333,-0.24 -0.152,-0.49866 -0.152,-0.776 0,-0.27733 0.05067,-0.53599 0.152,-0.776 0.101333,-0.239994 0.24,-0.45066 0.416,-0.631997 0.181333,-0.18133 0.391999,-0.322663 0.632,-0.424 0.239999,-0.106663 0.498665,-0.159996 0.776,-0.16 0.277331,4e-6 0.535997,0.05334 0.776,0.16 0.239997,0.101337 0.447997,0.24267 0.624,0.424 0.18133,0.181337 0.322663,0.392003 0.424,0.631997 0.101329,0.24001 0.151996,0.49867 0.152,0.776 -4e-6,0.27734 -0.05334,0.536 -0.16,0.776 -0.101337,0.24 -0.24267,0.45067 -0.424,0.632 -0.176003,0.176 -0.384003,0.31467 -0.624,0.416 -0.240003,0.10134 -0.496002,0.152 -0.768,0.152" />
        <path
           inkscape:connector-curvature="0"
           id="path3187"
           style="fill:#000000;fill-opacity:1"
           d="m 19.977228,102.75594 -0.64,0 0,-3.167997 -0.352,0 0,-0.592 0.352,0 0,-1.496 c 0,-0.154661 0.0053,-0.319994 0.016,-0.496 0.016,-0.181327 0.06667,-0.341327 0.152,-0.48 0.106666,-0.17066 0.245333,-0.29066 0.416,-0.36 0.175999,-0.07466 0.359999,-0.111993 0.552,-0.112 0.07466,7e-6 0.149332,0.008 0.224,0.024 0.08,0.01067 0.157331,0.02934 0.232,0.056 l 0,0.648 c -0.07467,-0.02666 -0.146669,-0.04799 -0.216,-0.064 -0.064,-0.01599 -0.136002,-0.02399 -0.216,-0.024 -0.128001,6e-6 -0.229335,0.02401 -0.304,0.072 -0.06934,0.04267 -0.120001,0.10934 -0.152,0.2 -0.032,0.08534 -0.05067,0.192006 -0.056,0.32 -0.0053,0.128006 -0.008,0.274672 -0.008,0.44 l 0,1.272 0.952,0 0,0.592 -0.952,0 0,3.167997" />
        <path
           inkscape:connector-curvature="0"
           id="path3189"
           style="fill:#000000;fill-opacity:1"
           d="m 22.164728,102.75594 -0.64,0 0,-3.167997 -0.352,0 0,-0.592 0.352,0 0,-1.496 c 0,-0.154661 0.0053,-0.319994 0.016,-0.496 0.016,-0.181327 0.06667,-0.341327 0.152,-0.48 0.106666,-0.17066 0.245333,-0.29066 0.416,-0.36 0.175999,-0.07466 0.359999,-0.111993 0.552,-0.112 0.07466,7e-6 0.149332,0.008 0.224,0.024 0.08,0.01067 0.157331,0.02934 0.232,0.056 l 0,0.648 c -0.07467,-0.02666 -0.146669,-0.04799 -0.216,-0.064 -0.064,-0.01599 -0.136002,-0.02399 -0.216,-0.024 -0.128001,6e-6 -0.229335,0.02401 -0.304,0.072 -0.06934,0.04267 -0.120001,0.10934 -0.152,0.2 -0.032,0.08534 -0.05067,0.192006 -0.056,0.32 -0.0053,0.128006 -0.008,0.274672 -0.008,0.44 l 0,1.272 0.952,0 0,0.592 -0.952,0 0,3.167997" />
      </g>
      <g
         id="text3929-8"
         style="font-size:10px;font-style:normal;font-variant:normal;font-weight:normal;font-stretch:normal;text-align:start;line-height:125%;letter-spacing:0px;word-spacing:0px;writing-mode:lr-tb;text-anchor:start;fill:#000000;fill-opacity:1;stroke:none;font-family:Futura LT Book;-inkscape-font-specification:'Futura LT Book,'">
        <path
           inkscape:connector-curvature="0"
           id="path3192"
           style="fill:#000000;fill-opacity:1"
           d="m 18.483228,74.606086 c -0.433337,7e-6 -0.840003,0.08334 -1.22,0.25 -0.373336,0.160007 -0.700002,0.38334 -0.98,0.67 -0.273335,0.280006 -0.490001,0.610005 -0.65,0.99 -0.160001,0.380005 -0.240001,0.783338 -0.24,1.21 -1e-6,0.42667 0.08,0.830003 0.24,1.21 0.159999,0.373336 0.379998,0.703335 0.66,0.99 0.279998,0.280001 0.606664,0.503335 0.98,0.67 0.379997,0.166668 0.78333,0.250001 1.21,0.25 0.426662,10e-7 0.826662,-0.08333 1.2,-0.25 0.379994,-0.166665 0.709994,-0.389999 0.99,-0.67 0.279993,-0.286665 0.499993,-0.616664 0.66,-0.99 0.159993,-0.379997 0.239993,-0.78333 0.24,-1.21 -7e-6,-0.426662 -0.08001,-0.829995 -0.24,-1.21 -0.160007,-0.379995 -0.380007,-0.709994 -0.66,-0.99 -0.273339,-0.28666 -0.600006,-0.509993 -0.98,-0.67 -0.373338,-0.16666 -0.776671,-0.249993 -1.21,-0.25 m 0,-0.78 c 0.539995,8e-6 1.046662,0.103341 1.52,0.31 0.479994,0.200007 0.89666,0.480007 1.25,0.84 0.359993,0.35334 0.643326,0.766673 0.85,1.24 0.206659,0.473338 0.309992,0.980004 0.31,1.52 -8e-6,0.540003 -0.103341,1.04667 -0.31,1.52 -0.206674,0.473335 -0.490007,0.886668 -0.85,1.24 -0.35334,0.346667 -0.770006,0.623334 -1.25,0.83 -0.473338,0.2 -0.980005,0.3 -1.52,0.3 -0.540004,0 -1.050003,-0.1 -1.53,-0.3 -0.473335,-0.206666 -0.890002,-0.483333 -1.25,-0.83 -0.353334,-0.353332 -0.633334,-0.766665 -0.84,-1.24 -0.206667,-0.47333 -0.31,-0.979997 -0.31,-1.52 0,-0.539996 0.103333,-1.046662 0.31,-1.52 0.206666,-0.473327 0.486666,-0.88666 0.84,-1.24 0.359998,-0.359993 0.776665,-0.639993 1.25,-0.84 0.479997,-0.206659 0.989996,-0.309992 1.53,-0.31" />
        <path
           inkscape:connector-curvature="0"
           id="path3194"
           style="fill:#000000;fill-opacity:1"
           d="m 23.59651,73.636086 5.88,6.16 0,-5.84 0.84,0 0,7.88 -5.88,-6.15 0,5.81 -0.84,0 0,-7.86" />
      </g>
      <g
         id="text3929-7"
         style="font-size:10px;font-style:normal;font-variant:normal;font-weight:normal;font-stretch:normal;text-align:start;line-height:125%;letter-spacing:0px;word-spacing:0px;writing-mode:lr-tb;text-anchor:start;fill:#000000;fill-opacity:1;stroke:none;font-family:Futura LT Book;-inkscape-font-specification:'Futura LT Book,'"
         transform="matrix(0,-1,1,0,0,0)">
        <path
           inkscape:connector-curvature="0"
           id="path3178"
           style="fill:#000000;fill-opacity:1"
           d="m -193.30191,18.209842 c 0,0.140003 0,0.283336 0,0.43 0,0.146669 0.01,0.293336 0.03,0.44 0.02,0.146669 0.0533,0.290002 0.1,0.43 0.0467,0.133335 0.11333,0.260001 0.2,0.38 0.16666,0.233334 0.39,0.413334 0.67,0.54 0.28666,0.120001 0.56999,0.180001 0.85,0.18 0.27333,1e-6 0.54333,-0.05667 0.81,-0.17 0.27333,-0.119999 0.49666,-0.286666 0.67,-0.5 0.1,-0.119999 0.17333,-0.249999 0.22,-0.39 0.0533,-0.139998 0.09,-0.283331 0.11,-0.43 0.0267,-0.153331 0.04,-0.306664 0.04,-0.46 -1e-5,-0.153331 -1e-5,-0.303331 0,-0.45 l 0,-4.49 0.84,0 0,4.72 c -1e-5,0.206669 -0.007,0.403336 -0.02,0.59 -0.0133,0.180002 -0.0433,0.356668 -0.09,0.53 -0.04,0.173335 -0.10667,0.340001 -0.2,0.5 -0.0867,0.160001 -0.20334,0.316667 -0.35,0.47 -0.26001,0.28 -0.57001,0.493333 -0.93,0.64 -0.35334,0.146667 -0.72001,0.22 -1.1,0.22 -0.36001,0 -0.71334,-0.06333 -1.06,-0.19 -0.34,-0.133333 -0.63667,-0.326666 -0.89,-0.58 -0.16667,-0.159999 -0.3,-0.319999 -0.4,-0.48 -0.0933,-0.166665 -0.16667,-0.339999 -0.22,-0.52 -0.0467,-0.179998 -0.08,-0.366665 -0.1,-0.56 -0.0133,-0.199998 -0.02,-0.406664 -0.02,-0.62 l 0,-4.72 0.84,0 0,4.49" />
        <path
           inkscape:connector-curvature="0"
           id="path3180"
           style="fill:#000000;fill-opacity:1"
           d="m -183.84644,15.189842 c -0.15334,-0.259994 -0.33001,-0.459994 -0.53,-0.6 -0.19334,-0.14666 -0.45001,-0.219993 -0.77,-0.22 -0.16667,7e-6 -0.32667,0.03001 -0.48,0.09 -0.14667,0.05334 -0.28001,0.13334 -0.4,0.24 -0.11334,0.100006 -0.20334,0.22334 -0.27,0.37 -0.0667,0.140006 -0.10001,0.296672 -0.1,0.47 -10e-6,0.160005 0.0367,0.303339 0.11,0.43 0.08,0.120005 0.17666,0.226672 0.29,0.32 0.11333,0.09334 0.23999,0.173338 0.38,0.24 0.13999,0.06667 0.27333,0.130005 0.4,0.19 l 0.5,0.22 c 0.24666,0.106671 0.47666,0.223337 0.69,0.35 0.21999,0.120004 0.41333,0.263337 0.58,0.43 0.16666,0.160003 0.29666,0.350003 0.39,0.57 0.1,0.213336 0.14999,0.470002 0.15,0.77 -1e-5,0.333335 -0.0633,0.643335 -0.19,0.93 -0.12001,0.280001 -0.29001,0.523334 -0.51,0.73 -0.21334,0.206667 -0.46334,0.37 -0.75,0.49 -0.28667,0.12 -0.59334,0.18 -0.92,0.18 -0.30001,0 -0.58001,-0.04667 -0.84,-0.14 -0.26001,-0.09333 -0.49334,-0.223333 -0.7,-0.39 -0.2,-0.173333 -0.37,-0.379999 -0.51,-0.62 -0.14,-0.239999 -0.24,-0.506665 -0.3,-0.8 l 0.82,-0.23 c 0.0267,0.193335 0.0833,0.376668 0.17,0.55 0.0867,0.166668 0.19333,0.313334 0.32,0.44 0.13333,0.126668 0.28666,0.226667 0.46,0.3 0.17333,0.07333 0.35999,0.110001 0.56,0.11 0.19999,1e-6 0.39333,-0.03667 0.58,-0.11 0.18666,-0.07333 0.34999,-0.173332 0.49,-0.3 0.14666,-0.133332 0.26333,-0.289999 0.35,-0.47 0.0867,-0.179998 0.12999,-0.376665 0.13,-0.59 -1e-5,-0.219998 -0.04,-0.406664 -0.12,-0.56 -0.08,-0.153331 -0.18667,-0.286664 -0.32,-0.4 -0.12667,-0.11333 -0.27334,-0.209997 -0.44,-0.29 -0.16667,-0.08666 -0.33667,-0.169997 -0.51,-0.25 l -0.46,-0.2 c -0.22001,-0.1 -0.43001,-0.206663 -0.63,-0.32 -0.20001,-0.113329 -0.37667,-0.243329 -0.53,-0.39 -0.14667,-0.146662 -0.26334,-0.316662 -0.35,-0.51 -0.0867,-0.199995 -0.13,-0.436661 -0.13,-0.71 0,-0.293327 0.0567,-0.55666 0.17,-0.79 0.11333,-0.239993 0.26666,-0.443326 0.46,-0.61 0.19999,-0.166659 0.42666,-0.293326 0.68,-0.38 0.25333,-0.09333 0.51999,-0.139992 0.8,-0.14 0.41999,8e-6 0.79999,0.103341 1.14,0.31 0.33999,0.200007 0.60999,0.486673 0.81,0.86 l -0.67,0.43" />
        <path
           inkscape:connector-curvature="0"
           id="path3182"
           style="fill:#000000;fill-opacity:1"
           d="m -180.84051,17.039842 0.32,0 c 0.24,4e-6 0.46667,-0.01 0.68,-0.03 0.21333,-0.02666 0.4,-0.08333 0.56,-0.17 0.16,-0.08666 0.28667,-0.213329 0.38,-0.38 0.0933,-0.173328 0.14,-0.406662 0.14,-0.7 0,-0.286661 -0.0433,-0.513327 -0.13,-0.68 -0.0867,-0.16666 -0.20667,-0.293327 -0.36,-0.38 -0.15333,-0.08666 -0.33667,-0.139993 -0.55,-0.16 -0.21333,-0.02666 -0.45,-0.03999 -0.71,-0.04 l -0.33,0 0,2.54 m -0.84,-3.32 1.24,0 c 0.34,7e-6 0.66333,0.03334 0.97,0.1 0.30667,0.06667 0.57333,0.180007 0.8,0.34 0.23333,0.160007 0.41667,0.370007 0.55,0.63 0.13333,0.260006 0.2,0.583339 0.2,0.97 0,0.306672 -0.06,0.586671 -0.18,0.84 -0.12,0.246671 -0.30667,0.456671 -0.56,0.63 0.22667,0.05334 0.42667,0.143337 0.6,0.27 0.18,0.120004 0.33,0.26667 0.45,0.44 0.12667,0.173336 0.22,0.363336 0.28,0.57 0.0667,0.206669 0.1,0.423336 0.1,0.65 0,0.373335 -0.07,0.693335 -0.21,0.96 -0.14,0.266667 -0.33333,0.486667 -0.58,0.66 -0.24667,0.166667 -0.53333,0.29 -0.86,0.37 -0.32667,0.07333 -0.67667,0.11 -1.05,0.11 l -1.75,0 0,-7.54 m 0.84,6.76 0.84,0 c 0.23333,10e-7 0.46333,-0.01667 0.69,-0.05 0.23333,-0.04 0.44,-0.109999 0.62,-0.21 0.18667,-0.1 0.33667,-0.239999 0.45,-0.42 0.11333,-0.179998 0.17,-0.413332 0.17,-0.7 0,-0.293331 -0.0633,-0.526664 -0.19,-0.7 -0.12667,-0.179997 -0.29,-0.316664 -0.49,-0.41 -0.19333,-0.09333 -0.41333,-0.15333 -0.66,-0.18 -0.24,-0.03333 -0.47333,-0.05 -0.7,-0.05 l -0.73,0 0,2.72" />
      </g>
      <g
         style="fill:#000000;fill-opacity:0.87843137;stroke:none"
         transform="matrix(3.9201072,0,0,3.9201072,124.30696,84.274096)"
         id="g4317">
        <g
           id="layer2-2"
           inkscape:label="Image"
           style="fill:#000000;fill-opacity:0.87843137;stroke:none;display:none"
           transform="translate(0,-3)">
          <image
             style="fill:#000000;fill-opacity:0.87843137;stroke:none"
             transform="translate(0,-1030.3622)"
             y="1034.0918"
             x="2.885488"
             id="image3047"
             xlink:href="file:///home/natronics/Dropbox/Code/Python/NeaLamp/ISS/iss.jpg"
             height="12.18975"
             width="16.253002" />
        </g>
        <g
           inkscape:label="Layer 1"
           id="layer1-1"
           transform="translate(0,-1033.3622)"
           style="fill:#000000;fill-opacity:0.87843137;stroke:none;display:inline">
          <g
             style="fill:#000000;fill-opacity:0.87843137;stroke:none"
             id="g3067">
            <path
               sodipodi:nodetypes="ccccc"
               inkscape:connector-curvature="0"
               id="path3050"
               d="m 8.7645741,1035.1059 c 0.2346787,0.034 0.7710867,0.017 0.7710867,0.017 l -3.0172955,4.0566 -0.8213748,-0.084 z"
               style="fill:#000000;fill-opacity:0.87843137;stroke:none" />
            <path
               sodipodi:nodetypes="ccccc"
               inkscape:connector-curvature="0"
               id="path3050-5"
               d="m 9.8515236,1035.1807 c 0.2346784,0.034 0.7592334,0.017 0.7592334,0.017 l -2.8394994,4.1039 -0.868787,-0.073 z"
               style="fill:#000000;fill-opacity:0.87843137;stroke:none" />
            <path
               sodipodi:nodetypes="ccccc"
               inkscape:connector-curvature="0"
               id="path3050-50"
               d="m 11.091967,1035.3122 c 0.234679,0.034 0.771087,0.028 0.771087,0.028 l -2.6498508,4.1277 -0.8806401,-0.06 z"
               style="fill:#000000;fill-opacity:0.87843137;stroke:none" />
            <path
               sodipodi:nodetypes="ccccccccccccccc"
               inkscape:connector-curvature="0"
               id="path3962"
               d="m 16.979161,1039.9792 c -0.05926,-0.024 -2.169109,-0.2607 -2.169109,-0.2607 l 0.177796,-0.6638 2.536554,0.2489 c 0,0 0.0237,-0.3556 0.201501,-0.4149 0.177796,-0.059 0.248915,-0.024 0.308179,-0.095 0.05926,-0.071 0.272621,-0.1659 0.272621,-0.1659 l 0.248914,0.1541 -0.154089,0.237 0.462268,0.4979 0.849582,0.028 c 0,0 -0.165788,0.3477 -0.331382,0.4908 -0.53764,-0.064 -0.467318,0 -0.465446,0.1116 -0.165941,-0.012 -1.024701,-0.1088 -1.024701,-0.1088 z"
               style="fill:#000000;fill-opacity:0.87843137;stroke:none" />
            <path
               sodipodi:nodetypes="cccccc"
               inkscape:connector-curvature="0"
               id="path3906"
               d="m 12.795032,1039.2325 1.872784,-1.4816 0.01188,0.6756 -1.489489,1.1912 -0.01349,-0.2966 z"
               style="fill:#000000;fill-opacity:0.87843137;stroke:none" />
            <path
               sodipodi:nodetypes="cccccc"
               inkscape:connector-curvature="0"
               id="path3906-2"
               d="m 13.180164,1039.7603 1.552831,-1.2449 0.01188,0.6757 -1.18838,0.9348 -0.365099,-0.038 z"
               style="fill:#000000;fill-opacity:0.87843137;stroke:none;display:inline" />
            <path
               sodipodi:nodetypes="ccccc"
               inkscape:connector-curvature="0"
               id="path3050-4"
               d="m 12.253507,1035.3896 c 0.234679,0.034 0.78294,0.017 0.78294,0.017 l -2.507614,4.2105 -0.8924935,-0.071 z"
               style="fill:#000000;fill-opacity:0.87843137;stroke:none" />
            <path
               sodipodi:nodetypes="ccccc"
               inkscape:connector-curvature="0"
               id="path3050-1"
               d="m 8.696085,1040.702 c 0.2346786,0.034 0.9607355,0.1229 0.9607355,0.1229 l -3.8944216,6.4271 -1.070289,-0.2378 z"
               style="fill:#000000;fill-opacity:0.87843137;stroke:none" />
            <path
               sodipodi:nodetypes="ccccc"
               inkscape:connector-curvature="0"
               id="path3050-9"
               d="m 7.3333924,1040.5382 c 0.2346786,0.034 0.9370294,0.075 0.9370294,0.075 l -4.0485114,6.2613 -0.9517584,-0.2971 z"
               style="fill:#000000;fill-opacity:0.87843137;stroke:none" />
            <path
               sodipodi:nodetypes="ccccc"
               inkscape:connector-curvature="0"
               id="path3050-41"
               d="m 5.8677406,1040.2978 c 0.2346786,0.034 0.8777642,0.1118 0.8777642,0.1118 l -4.2381602,5.9292 -0.8332279,-0.2497 z"
               style="fill:#000000;fill-opacity:0.87843137;stroke:none" />
            <path
               sodipodi:nodetypes="ccccc"
               inkscape:connector-curvature="0"
               id="path3050-43"
               d="m 4.6157929,1040.1539 c 0.2346786,0.034 0.8422051,0.088 0.8422051,0.088 l -4.2381604,5.7515 -0.71469727,-0.2497 z"
               style="fill:#000000;fill-opacity:0.87843137;stroke:none" />
            <path
               sodipodi:nodetypes="ccccc"
               inkscape:connector-curvature="0"
               id="path3906-9"
               d="m 13.648241,1040.1494 1.049194,-0.8873 0.01188,0.6756 -0.373432,0.2889 z"
               style="fill:#000000;fill-opacity:0.87843137;stroke:none;display:inline" />
            <path
               sodipodi:nodetypes="ccccccsccccscccccccccccccccccccccccccccccccc"
               inkscape:connector-curvature="0"
               id="path3886"
               d="m 14.398759,1042.3261 c 0,0 -1.094045,-0.2015 -1.105898,-0.1896 -0.40891,0.031 -0.473942,1.1977 -0.213355,1.1853 l 1.244571,0.1896 0.11853,-0.1185 0.05927,0.095 c 0,0 0.260766,0.3556 0.568946,0.249 0.308179,-0.1067 0.343739,-0.249 0.343739,-0.249 0,0 -0.01188,0.1541 0.04741,0.1778 0.05926,0.024 2.560259,0.4149 2.560259,0.4149 0,0 0.15409,-0.2134 0.165943,-0.3319 0.01188,-0.1185 0.08298,-0.024 0.142236,-0.024 0.05926,0 0.320034,-0.4741 0.320034,-0.4741 l -0.106678,-0.5216 -0.403005,-0.3081 0,-0.166 0.225209,-0.071 0.106678,-0.083 0.36388,-0.027 0.0083,-0.1591 -0.04196,-0.1317 -0.365794,-0.061 -0.08298,0.071 -0.22921,-0.078 -0.434566,0.1019 c 0,0 -0.213356,-0.059 -0.331887,-0.047 -0.118527,0.012 -0.308179,0.095 -0.403003,0.1304 -0.09483,0.036 -0.03556,0.012 -0.05926,0.1185 -0.0237,0.1067 -0.0237,0.6875 -0.0237,0.6875 l -0.829715,-0.1185 0.859049,-1.0621 -1.250215,-0.1465 -0.01444,1.1726 -0.391058,0.1292 -0.442543,-0.02 -0.293183,-0.096 z m 3.02841,-1.7261 0.215759,-0.3713 -0.01188,-0.1778 c -0.53422,-0.026 -0.274797,-0.024 -0.817561,-0.079 -0.05926,0.012 -0.272916,0.3395 -0.272916,0.3395 0,0 -0.675625,-0.1541 -0.73489,-0.1067 -0.05926,0.047 -0.239679,0.1766 -0.239679,0.1766"
               style="fill:#000000;fill-opacity:0.87843137;stroke:none" />
            <path
               sodipodi:nodetypes="cccccccc"
               inkscape:connector-curvature="0"
               id="path3904"
               d="m 12.331518,1039.9976 -0.03431,-0.7888 0.877126,0.1067 0.02356,0.7579 m 0.02963,0.9529 0.01793,0.5768 -0.817863,-0.1185 -0.03592,-0.5983"
               style="fill:#000000;fill-opacity:0.87843137;stroke:none" />
            <path
               sodipodi:nodetypes="ccccc"
               inkscape:connector-curvature="0"
               id="path3935"
               d="m 19.456449,1040.0385 0.936393,-1.6831 -0.02371,0.6874 -0.52256,1.0065 z"
               style="fill:#000000;fill-opacity:0.87843137;stroke:none" />
            <path
               sodipodi:nodetypes="ccccc"
               inkscape:connector-curvature="0"
               id="path3935-1"
               d="m 19.940632,1040.0929 0.398871,-0.8961 -0.02371,0.6875 -0.432973,0.9424 z"
               style="fill:#000000;fill-opacity:0.87843137;stroke:none;display:inline" />
            <path
               sodipodi:nodetypes="ccccc"
               inkscape:connector-curvature="0"
               id="path3935-6"
               d="m 19.884497,1040.9099 0.39574,-0.8833 -0.05928,0.6164 -0.151118,0.2731 z"
               style="fill:#000000;fill-opacity:0.87843137;stroke:none;display:inline" />
            <path
               sodipodi:nodetypes="cccccccc"
               inkscape:connector-curvature="0"
               id="path3933"
               d="m 18.885343,1040.7837 0.03772,-0.7808 1.019363,0.071 -0.07623,0.801 m -0.04807,1.0027 -0.02978,0.6498 -0.936392,-0.1659 0.0075,-0.5996"
               style="fill:#000000;fill-opacity:0.87843137;stroke:none" />
            <path
               sodipodi:nodetypes="ccccccc"
               inkscape:connector-curvature="0"
               id="path3884"
               d="m 6.4299412,1039.2918 -0.3674449,0.4267 0.3081796,0.3674 22.6274841,3.0462 0.165943,-0.6519 -0.213355,-0.5097 z"
               style="fill:#000000;fill-opacity:0.87843137;stroke:none" />
            <path
               sodipodi:nodetypes="cccccc"
               inkscape:connector-curvature="0"
               id="path3896"
               d="m 14.418901,1042.338 c -0.04159,0.3898 1.047218,0.4046 1.197158,0.1422 0,0 0.0064,-1.0292 0.0064,-1.1122 -0.652382,-0.1 -0.512566,-0.044 -1.209011,-0.1818 -0.01185,0.083 0.0055,1.1518 0.0055,1.1518 z"
               style="fill:#000000;fill-opacity:0.87843137;stroke:none" />
            <path
               sodipodi:nodetypes="ccccccc"
               inkscape:connector-curvature="0"
               id="path3898"
               d="m 14.513725,1043.1559 c 0.118531,-0.2253 0.438563,-0.1778 0.497828,-0.083 0.118528,0.1185 0.177796,0.237 0.118528,0.32 -0.04741,0.2015 -0.308179,0.4741 -0.308179,0.4741 -0.178959,0.1572 -0.464721,-0.063 -0.343739,-0.2726 0.04741,-0.024 0.05927,-0.1185 0.05927,-0.1185 z"
               style="fill:#000000;fill-opacity:0.87843137;stroke:none" />
            <path
               sodipodi:nodetypes="ccccccccccc"
               inkscape:connector-curvature="0"
               id="path3900"
               d="m 16.398368,1044.033 -0.794156,-0.095 0.02371,0.2964 0.806007,0.095 -0.106678,0.1422 c 0.176726,0.2833 0.483383,0.1847 0.580801,0.059 -0.07111,-0.095 -0.04741,-0.1778 -0.04741,-0.1778 l 0.782301,0.1778 0.01188,-0.3082 -0.794154,-0.1304 c -0.102491,-0.177 -0.376344,-0.2906 -0.462301,-0.059 z"
               style="fill:#000000;fill-opacity:0.87843137;stroke:none" />
            <path
               inkscape:connector-curvature="0"
               id="path3902"
               d="m 18.342263,1043.7367 -0.213356,0.5807 0.09483,0.1304 1.220865,0.1897 0.106677,-0.3556 0.130378,0 0.308179,0.1659 c 0,0 0.177796,-0.035 0.367445,-0.095 0.189649,-0.059 0.367445,-0.095 0.296326,-0.2134 -0.07111,-0.1185 -0.213355,-0.3081 -0.213355,-0.3081 l -0.04741,-0.2015 0.01188,-0.1541 0.343739,0.047 -0.42671,-0.1422 -0.130392,0.2489 -0.995656,-0.4742 -0.05926,0.071 -0.995657,0.059 -0.01188,0.1304 1.126041,-0.083 0.61637,0.249 c 0,0 -0.07111,0.1303 -0.08298,0.2015 -0.01188,0.071 -0.09483,0.2252 -0.09483,0.2252 0,0 -0.106678,-0.1304 -0.165943,-0.1304 -0.05926,0 -1.185305,-0.1422 -1.185305,-0.1422 z"
               style="fill:#000000;fill-opacity:0.87843137;stroke:none" />
            <path
               inkscape:connector-curvature="0"
               id="path4028"
               d="m 17.820728,1038.0472 -0.01188,0.6993 3.25959,-0.4978 0.0237,-0.6756 z"
               style="fill:#000000;fill-opacity:0.87843137;stroke:none" />
            <path
               sodipodi:nodetypes="ccccc"
               inkscape:connector-curvature="0"
               id="path4049"
               d="m 22.739745,1040.8919 1.220866,0.1067 0.699331,-5.1679 -1.054923,-0.047 z"
               style="fill:#000000;fill-opacity:0.87843137;stroke:none" />
            <path
               sodipodi:nodetypes="ccccc"
               inkscape:connector-curvature="0"
               id="path4049-8"
               d="m 24.553263,1041.0703 1.256425,0.094 0.379299,-5.2508 -1.07863,-0.036 z"
               style="fill:#000000;fill-opacity:0.87843137;stroke:none;display:inline" />
            <path
               sodipodi:nodetypes="ccccc"
               inkscape:connector-curvature="0"
               id="path4049-1"
               d="m 20.973351,1050.8489 1.656698,0.2068 1.101636,-8.3529 -1.222549,-0.1482 z"
               style="fill:#000000;fill-opacity:0.87843137;stroke:none;display:inline" />
            <path
               sodipodi:nodetypes="ccccc"
               inkscape:connector-curvature="0"
               id="path4049-3"
               d="m 23.326996,1051.1585 1.690221,0.1397 0.638382,-8.4386 -1.315691,-0.082 z"
               style="fill:#000000;fill-opacity:0.87843137;stroke:none;display:inline" />
            <path
               sodipodi:nodetypes="ccccc"
               inkscape:connector-curvature="0"
               id="path4049-5"
               d="m 26.186603,1051.5272 1.522595,0.039 0.06235,-8.3866 -1.1555,-0.1145 z"
               style="fill:#000000;fill-opacity:0.87843137;stroke:none;display:inline" />
            <path
               sodipodi:nodetypes="ccccc"
               inkscape:connector-curvature="0"
               id="path4049-32"
               d="m 28.329275,1051.5984 1.623171,0.2068 -0.373486,-8.5207 -1.222549,-0.081 z"
               style="fill:#000000;fill-opacity:0.87843137;stroke:none;display:inline" />
            <path
               sodipodi:nodetypes="ccccc"
               inkscape:connector-curvature="0"
               id="path4049-9"
               d="m 26.746079,1041.3075 1.137895,0.1535 0.201501,-5.4051 -1.137893,-0.048 z"
               style="fill:#000000;fill-opacity:0.87843137;stroke:none;display:inline" />
            <path
               sodipodi:nodetypes="ccccc"
               inkscape:connector-curvature="0"
               id="path4049-2"
               d="m 28.358093,1041.4852 1.149748,0.094 0.296328,-5.4642 -1.173453,-0.06 z"
               style="fill:#000000;fill-opacity:0.87843137;stroke:none;display:inline" />
          </g>
        </g>
      </g>
      <g
         transform="translate(0,-12)"
         id="text4355"
         style="font-size:25px;font-style:normal;font-variant:normal;font-weight:500;font-stretch:normal;text-align:start;line-height:125%;letter-spacing:0px;word-spacing:0px;writing-mode:lr-tb;text-anchor:start;fill:#000000;fill-opacity:1;stroke:none;font-family:Knockout;-inkscape-font-specification:Knockout Medium">
        <path
           inkscape:connector-curvature="0"
           id="path3159"
           style="fill:#000000;fill-opacity:1;stroke:none"
           d="m 159.40353,196.88191 0,-16.65 -1.825,0 0,16.65 1.825,0" />
        <path
           inkscape:connector-curvature="0"
           id="path3161"
           style="fill:#000000;fill-opacity:1;stroke:none"
           d="m 167.19064,193.50691 c 0,-1.9 -0.9,-3.65 -2.35,-5.525 -1.475,-1.95 -2.1,-3.075 -2.1,-4.85 0,-0.975 0.475,-1.525 1.35,-1.525 0.9,0 1.325,0.675 1.325,1.825 l 0,1.825 1.7,0 0,-1.975 c 0,-1.95 -1.175,-3.3 -2.975,-3.3 -2.12499,0 -3.15,1.55 -3.15,3.625 0,1.95 1.375,4.175 2.55,5.675 1.3,1.675 1.9,3.025 1.9,4.625 0,1.05 -0.45,1.7 -1.45,1.7 -0.875,0 -1.4,-0.725 -1.4,-1.825 l 0,-1.825 -1.75,0 0,1.9 c 0,1.925 1.22501,3.275 3.175,3.275 1.525,0 3.175,-0.975 3.175,-3.625" />
        <path
           inkscape:connector-curvature="0"
           id="path3163"
           style="fill:#000000;fill-opacity:1;stroke:none"
           d="m 174.61252,193.50691 c 0,-1.9 -0.9,-3.65 -2.35,-5.525 -1.475,-1.95 -2.1,-3.075 -2.1,-4.85 0,-0.975 0.475,-1.525 1.35,-1.525 0.9,0 1.325,0.675 1.325,1.825 l 0,1.825 1.7,0 0,-1.975 c 0,-1.95 -1.175,-3.3 -2.975,-3.3 -2.125,0 -3.15,1.55 -3.15,3.625 0,1.95 1.375,4.175 2.55,5.675 1.3,1.675 1.9,3.025 1.9,4.625 0,1.05 -0.45,1.7 -1.45,1.7 -0.875,0 -1.4,-0.725 -1.4,-1.825 l 0,-1.825 -1.75,0 0,1.9 c 0,1.925 1.225,3.275 3.175,3.275 1.525,0 3.175,-0.975 3.175,-3.625" />
        <path
           inkscape:connector-curvature="0"
           id="path3165"
           style="fill:#000000;fill-opacity:1;stroke:none"
           d="m 185.59025,196.88191 0,-16.65 -1.7,0 0,11.25 -0.75,-2.7 -2.575,-8.55 -1.625,0 0,16.65 1.7,0 0,-11.1 0.8,2.675 2.825,8.425 1.325,0" />
        <path
           inkscape:connector-curvature="0"
           id="path3167"
           style="fill:#000000;fill-opacity:1;stroke:none"
           d="m 193.66252,193.65691 0,-10.2 c 0,-2 -1.25,-3.475 -3.2,-3.475 -1.95,0 -3.2,1.475 -3.2,3.475 l 0,10.2 c 0,2.025 1.25,3.475 3.2,3.475 1.95,0 3.2,-1.45 3.2,-3.475 m -1.775,0.25 c 0,0.875 -0.5,1.5 -1.425,1.5 -0.925,0 -1.4,-0.625 -1.4,-1.5 l 0,-10.7 c 0,-0.85 0.475,-1.5 1.4,-1.5 0.925,0 1.425,0.65 1.425,1.5 l 0,10.7" />
        <path
           inkscape:connector-curvature="0"
           id="path3169"
           style="fill:#000000;fill-opacity:1;stroke:none"
           d="m 200.8965,181.93191 0,-1.7 -6.15,0 0,1.7 2.225,0 0,14.95 1.775,0 0,-14.95 2.15,0" />
        <path
           inkscape:connector-curvature="0"
           id="path3171"
           style="fill:#000000;fill-opacity:1;stroke:none"
           d="m 203.93478,196.88191 0,-16.65 -1.825,0 0,16.65 1.825,0" />
        <path
           inkscape:connector-curvature="0"
           id="path3173"
           style="fill:#000000;fill-opacity:1;stroke:none"
           d="m 210.94689,181.88191 0,-1.65 -5.175,0 0,16.65 1.825,0 0,-7.65 2.625,0 0,-1.625 -2.625,0 0,-5.725 3.35,0" />
        <path
           inkscape:connector-curvature="0"
           id="path3175"
           style="fill:#000000;fill-opacity:1;stroke:none"
           d="m 218.36721,180.23191 -1.725,0 -1.775,7.75 -1.775,-7.75 -1.8,0 2.575,10.075 0,6.575 1.8,0 0,-6.575 2.7,-10.075" />
      </g>
      <g
         transform="translate(-4.4094488e-6,-6.456693)"
         style="stroke-width:1.25;stroke-miterlimit:4;stroke-dasharray:none"
         id="g3840">
        <path
           sodipodi:nodetypes="ccc"
           style="fill:none;stroke:#000000;stroke-width:1.25;stroke-linecap:butt;stroke-linejoin:round;stroke-miterlimit:4;stroke-opacity:1;stroke-dasharray:none"
           d="m 187.79528,44.976367 0,-13.086614 -3.54331,2.456693"
           id="path3836"
           inkscape:connector-curvature="0"
           transform="translate(0,-17.716498)" />
        <path
           sodipodi:nodetypes="cc"
           style="fill:none;stroke:#000000;stroke-width:1.25;stroke-linecap:butt;stroke-linejoin:miter;stroke-miterlimit:4;stroke-opacity:1;stroke-dasharray:none"
           d="m 187.79528,31.889753 3.5433,2.456693"
           id="path3838"
           inkscape:connector-curvature="0"
           transform="translate(0,-17.716498)" />
      </g>
    </g>
  </g>
</svg>
