<?xml version="1.0" encoding="UTF-8" standalone="no"?>
<!-- Created with Inkscape (http://www.inkscape.org/) -->

<svg
   xmlns:dc="http://purl.org/dc/elements/1.1/"
   xmlns:cc="http://creativecommons.org/ns#"
   xmlns:rdf="http://www.w3.org/1999/02/22-rdf-syntax-ns#"
   xmlns:svg="http://www.w3.org/2000/svg"
   xmlns="http://www.w3.org/2000/svg"
   xmlns:xlink="http://www.w3.org/1999/xlink"
   xmlns:sodipodi="http://sodipodi.sourceforge.net/DTD/sodipodi-0.dtd"
   xmlns:inkscape="http://www.inkscape.org/namespaces/inkscape"
   width="372.04724"
   height="301.18109"
   id="svg2"
   version="1.1"
   inkscape:version="0.48.2 r9819"
   sodipodi:docname="faceplate.svg">
  <defs
     id="defs4" />
  <sodipodi:namedview
     id="base"
     pagecolor="#ffffff"
     bordercolor="#666666"
     borderopacity="1.0"
     inkscape:pageopacity="0.0"
     inkscape:pageshadow="2"
     inkscape:zoom="3.3202616"
     inkscape:cx="186.02362"
     inkscape:cy="150.59055"
     inkscape:document-units="mm"
     inkscape:current-layer="layer1"
     showgrid="true"
     units="mm"
     borderlayer="true"
     inkscape:showpageshadow="false"
     inkscape:window-width="1920"
     inkscape:window-height="1176"
     inkscape:window-x="0"
     inkscape:window-y="24"
     inkscape:window-maximized="1">
    <inkscape:grid
       type="xygrid"
       id="grid3008"
       empspacing="4"
       visible="false"
       enabled="true"
       snapvisiblegridlinesonly="true"
       units="mm"
       spacingx="0.25mm"
       spacingy="0.25mm" />
  </sodipodi:namedview>
  <metadata
     id="metadata7">
    <rdf:RDF>
      <cc:Work
         rdf:about="">
        <dc:format>image/svg+xml</dc:format>
        <dc:type
           rdf:resource="http://purl.org/dc/dcmitype/StillImage" />
        <dc:title />
      </cc:Work>
    </rdf:RDF>
  </metadata>
  <g
     inkscape:label="Board"
     inkscape:groupmode="layer"
     id="layer1"
     transform="translate(0,-751.18113)"
     style="display:inline"
     sodipodi:insensitive="true">
    <image
       y="740.44305"
       x="-22.501968"
       id="image3278"
       xlink:href="file:///home/natronics/open-notify/Code/ISS-Notify-Hardware/board.png"
       height="322.69476"
       width="411.02362"
       style="opacity:0.39361704" />
  </g>
  <g
     inkscape:groupmode="layer"
     id="layer2"
     inkscape:label="Boarder(CUT)"
     transform="translate(0,17.716498)"
     style="display:inline">
    <path
       style="fill:none;stroke:#ff0000;stroke-width:0.70866144;stroke-linecap:butt;stroke-linejoin:miter;stroke-miterlimit:4;stroke-opacity:1;stroke-dasharray:none"
       d="m 14.173228,279.92129 c 3.543307,0 215.438592,0 226.771652,0 7.08662,0 10.62992,-24.80315 17.71654,-24.80315 21.25984,0 37.05866,0 53.1496,0 7.08662,0 10.62992,24.80315 17.71654,24.80315 14.63423,0 30.78115,0 31.88976,0 5.31496,-10e-6 6.93335,-2.55018 6.93335,-7.86514 0,-0.87393 0.15327,-6.15143 0.15327,-31.11124 0,-7.08662 -21.25985,-10.62993 -21.25985,-17.71654 0,-16.50243 -0.15327,-50.38482 -0.15327,-57.47143 0,-5.82375 21.25985,-10.62992 21.25985,-17.71654 0,-72.66865 1e-5,-148.583666 0,-152.362202 -10e-6,-5.314961 -1.77166,-7.086614 -7.08662,-7.086614 -17.71654,0 -343.700782,0 -347.244089,0 -5.31496,0 -7.086614,1.771653 -7.086614,7.086614 0,3.543307 0,272.834642 0,276.377952 0,5.31496 3.696574,7.86514 7.239881,7.86514 z"
       id="path3778"
       inkscape:connector-curvature="0"
       sodipodi:nodetypes="zsssssssssssssssz" />
  </g>
  <g
     inkscape:groupmode="layer"
     id="layer3"
     inkscape:label="Holes(CUT)"
     transform="translate(0,17.716498)"
     style="display:inline">
    <path
       sodipodi:type="arc"
       style="fill:none;stroke:#ff0000;stroke-width:1.05641007;stroke-miterlimit:4;stroke-opacity:1;stroke-dasharray:none"
       id="path3783"
       sodipodi:cx="21.259842"
       sodipodi:cy="21.259844"
       sodipodi:rx="8.8582678"
       sodipodi:ry="7.0866141"
       d="m 30.11811,21.259844 a 8.8582678,7.0866141 0 1 1 -17.716536,0 8.8582678,7.0866141 0 1 1 17.716536,0 z"
       transform="matrix(0.8,0,0,1,14.728623,-7.865111)" />
    <path
       sodipodi:type="arc"
       style="fill:none;stroke:#ff0000;stroke-width:1.05641007;stroke-miterlimit:4;stroke-opacity:1;stroke-dasharray:none"
       id="path3783-3"
       sodipodi:cx="21.259842"
       sodipodi:cy="21.259844"
       sodipodi:rx="8.8582678"
       sodipodi:ry="7.0866141"
       d="m 30.11811,21.259844 a 8.8582678,7.0866141 0 1 1 -17.716536,0 8.8582678,7.0866141 0 1 1 17.716536,0 z"
       transform="matrix(0.79999988,0,0,1,326.53964,-7.865111)" />
    <path
       sodipodi:type="arc"
       style="fill:none;stroke:#ff0000;stroke-width:1.05641007;stroke-miterlimit:4;stroke-opacity:1;stroke-dasharray:none"
       id="path3783-5"
       sodipodi:cx="21.259842"
       sodipodi:cy="21.259844"
       sodipodi:rx="8.8582678"
       sodipodi:ry="7.0866141"
       d="m 30.11811,21.259844 a 8.8582678,7.0866141 0 1 1 -17.716536,0 8.8582678,7.0866141 0 1 1 17.716536,0 z"
       transform="matrix(0.79999988,0,0,1,326.53964,233.07977)" />
    <path
       sodipodi:type="arc"
       style="fill:none;stroke:#ff0000;stroke-width:1.05641007;stroke-miterlimit:4;stroke-opacity:1;stroke-dasharray:none"
       id="path3783-6"
       sodipodi:cx="21.259842"
       sodipodi:cy="21.259844"
       sodipodi:rx="8.8582678"
       sodipodi:ry="7.0866141"
       d="m 30.11811,21.259844 a 8.8582678,7.0866141 0 1 1 -17.716536,0 8.8582678,7.0866141 0 1 1 17.716536,0 z"
       transform="matrix(0.8,0,0,1,14.728623,233.07977)" />
    <path
       sodipodi:type="arc"
       style="fill:none;stroke:#ff0000;stroke-width:1.05641007;stroke-miterlimit:4;stroke-opacity:1;stroke-dasharray:none"
       id="path3783-5-5"
       sodipodi:cx="21.259842"
       sodipodi:cy="21.259844"
       sodipodi:rx="8.8582678"
       sodipodi:ry="7.0866141"
       d="m 30.11811,21.259844 a 8.8582678,7.0866141 0 1 1 -17.716536,0 8.8582678,7.0866141 0 1 1 17.716536,0 z"
       transform="matrix(0.8,0,0,0.99999999,14.728623,202.96166)" />
  </g>
  <g
     inkscape:groupmode="layer"
     id="layer4"
     inkscape:label="Light(Raster)"
     transform="translate(0,17.716498)"
     style="display:inline">
    <rect
       style="fill:#a5a5a5;fill-opacity:1;stroke:none"
       id="rect3836"
       width="14.173228"
       height="14.173228"
       x="180.55539"
       y="38.197884" />
    <rect
       style="fill:#a5a5a5;fill-opacity:1;stroke:none"
       id="rect3836-0"
       width="14.173228"
       height="14.173228"
       x="220.18134"
       y="-81.013054"
       transform="matrix(0.84928532,0.52793413,-0.52793413,0.84928532,0,0)" />
    <rect
       style="fill:#a5a5a5;fill-opacity:1;stroke:none"
       id="rect3836-7"
       width="14.173228"
       height="14.173228"
       x="202.37222"
       y="-191.77913"
       transform="matrix(0.49812445,0.86710555,-0.86710555,0.49812445,0,0)" />
    <rect
       style="fill:#a5a5a5;fill-opacity:1;stroke:none"
       id="rect3836-8"
       width="14.173228"
       height="14.173228"
       x="269.13806"
       y="126.78056" />
    <rect
       style="fill:#a5a5a5;fill-opacity:1;stroke:none"
       id="rect3836-1"
       width="14.173228"
       height="14.173228"
       x="310.82535"
       y="21.874338"
       transform="matrix(0.8762159,0.48191876,-0.48191876,0.8762159,0,0)" />
    <rect
       style="fill:#a5a5a5;fill-opacity:1;stroke:none"
       id="rect3836-5"
       width="14.173228"
       height="14.173228"
       x="294.52725"
       y="-92.539162"
       transform="matrix(0.52923978,0.84847231,-0.84847231,0.52923978,0,0)" />
    <rect
       style="fill:#a5a5a5;fill-opacity:1;stroke:none"
       id="rect3836-2"
       width="14.173228"
       height="14.173228"
       x="180.55539"
       y="215.36324" />
    <rect
       style="fill:#a5a5a5;fill-opacity:1;stroke:none"
       id="rect3836-4"
       width="14.173228"
       height="14.173228"
       x="223.45923"
       y="101.80402"
       transform="matrix(0.86190221,0.50707454,-0.50707454,0.86190221,0,0)" />
    <rect
       style="fill:#a5a5a5;fill-opacity:1;stroke:none"
       id="rect3836-21"
       width="14.173228"
       height="14.173228"
       x="202.97885"
       y="-8.4955034"
       transform="matrix(0.52252107,0.85262637,-0.85262637,0.52252107,0,0)" />
    <rect
       style="fill:#a5a5a5;fill-opacity:1;stroke:none"
       id="rect3836-6"
       width="14.173228"
       height="14.173228"
       x="91.972717"
       y="126.78056" />
    <rect
       style="fill:#a5a5a5;fill-opacity:1;stroke:none"
       id="rect3836-3"
       width="14.173228"
       height="14.173228"
       x="133.00916"
       y="19.56307"
       transform="matrix(0.88178464,0.47165226,-0.47165226,0.88178464,0,0)" />
    <rect
       style="fill:#a5a5a5;fill-opacity:1;stroke:none"
       id="rect3836-53"
       width="14.173228"
       height="14.173228"
       x="88.625221"
       y="114.15686"
       transform="matrix(0.86618558,-0.49972246,0.49972246,0.86618558,0,0)" />
    <path
       sodipodi:type="arc"
       style="fill:none;stroke:#a5a5a5;stroke-width:1.55259931;stroke-miterlimit:4;stroke-opacity:1;stroke-dasharray:1.55259929, 1.55259929;stroke-dashoffset:0"
       id="path3926"
       sodipodi:cx="177.16536"
       sodipodi:cy="141.73228"
       sodipodi:rx="70.866142"
       sodipodi:ry="85.039368"
       d="m 248.0315,141.73228 a 70.866142,85.039368 0 1 1 -141.73228,0 70.866142,85.039368 0 1 1 141.73228,0 z"
       transform="matrix(1.2500001,0,0,1.0416667,-33.814697,-13.770629)" />
  </g>
  <g
     inkscape:groupmode="layer"
     id="layer5"
     inkscape:label="Text(Raster)"
     transform="translate(0,17.716498)"
     style="display:inline">
    <text
       xml:space="preserve"
       style="font-size:8px;font-style:normal;font-variant:normal;font-weight:normal;font-stretch:normal;text-align:start;line-height:125%;letter-spacing:0px;word-spacing:0px;writing-mode:lr-tb;text-anchor:start;fill:#c2c2c2;fill-opacity:1;stroke:none;font-family:Futura LT Book;-inkscape-font-specification:'Futura LT Book,'"
       x="14.173228"
       y="102.75594"
       id="text3929"
       sodipodi:linespacing="125%"><tspan
         sodipodi:role="line"
         id="tspan3939"
         x="14.173228"
         y="102.75594">off</tspan></text>
    <text
       xml:space="preserve"
       style="font-size:10px;font-style:normal;font-variant:normal;font-weight:normal;font-stretch:normal;text-align:start;line-height:125%;letter-spacing:0px;word-spacing:0px;writing-mode:lr-tb;text-anchor:start;fill:#c2c2c2;fill-opacity:1;stroke:none;font-family:Futura LT Book;-inkscape-font-specification:'Futura LT Book,'"
       x="14.173228"
       y="81.496086"
       id="text3929-8"
       sodipodi:linespacing="125%"><tspan
         sodipodi:role="line"
         id="tspan3966"
         x="14.173228"
         y="81.496086">ON</tspan></text>
    <text
       xml:space="preserve"
       style="font-size:10px;font-style:normal;font-variant:normal;font-weight:normal;font-stretch:normal;text-align:start;line-height:125%;letter-spacing:0px;word-spacing:0px;writing-mode:lr-tb;text-anchor:start;fill:#c2c2c2;fill-opacity:1;stroke:none;font-family:Futura LT Book;-inkscape-font-specification:'Futura LT Book,'"
       x="-194.88191"
       y="21.259842"
       id="text3929-7"
       sodipodi:linespacing="125%"
       transform="matrix(0,-1,1,0,0,0)"><tspan
         sodipodi:role="line"
         id="tspan4014"
         x="-194.88191"
         y="21.259842">USB</tspan></text>
    <text
       xml:space="preserve"
       style="font-size:15px;font-style:normal;font-variant:normal;font-weight:normal;font-stretch:normal;text-align:start;line-height:125%;letter-spacing:0px;word-spacing:0px;writing-mode:lr-tb;text-anchor:start;fill:#c2c2c2;fill-opacity:1;stroke:none;font-family:Futura LT Medium;-inkscape-font-specification:'Futura LT Medium,'"
       x="180.55539"
       y="27.567959"
       id="text3929-8-3"
       sodipodi:linespacing="125%"><tspan
         sodipodi:role="line"
         id="tspan4037"
         x="180.55539"
         y="27.567959">N</tspan></text>
    <g
       id="g4317"
       transform="matrix(4.160124,0,0,4.160124,120.18572,91.855579)"
       style="fill:#d2d2d2;fill-opacity:1;stroke:#c8c8c8;stroke-width:0.17034622999999999;stroke-miterlimit:4;stroke-opacity:1;stroke-dasharray:none">
      <g
         transform="translate(0,-3)"
         style="fill:#d2d2d2;fill-opacity:1;stroke:#c8c8c8;stroke-width:0.17034622999999999;stroke-miterlimit:4;stroke-opacity:1;stroke-dasharray:none;display:none"
         inkscape:label="Image"
         id="layer2-2">
        <image
           width="16.253002"
           height="12.18975"
           xlink:href="file:///home/natronics/Dropbox/Code/Python/NeaLamp/ISS/iss.jpg"
           id="image3047"
           x="2.885488"
           y="1034.0918"
           transform="translate(0,-1030.3622)"
           style="fill:#d2d2d2;fill-opacity:1;stroke:#c8c8c8;stroke-width:0.17034622999999999;stroke-miterlimit:4;stroke-opacity:1;stroke-dasharray:none" />
      </g>
      <g
         style="fill:#d2d2d2;fill-opacity:1;stroke:#c8c8c8;stroke-width:0.17034622999999999;stroke-miterlimit:4;stroke-opacity:1;stroke-dasharray:none;display:inline"
         transform="translate(0,-1033.3622)"
         id="layer1-1"
         inkscape:label="Layer 1">
        <g
           id="g3067"
           style="fill:#d2d2d2;fill-opacity:1;stroke:#c8c8c8;stroke-width:0.17034622999999999;stroke-miterlimit:4;stroke-opacity:1;stroke-dasharray:none">
          <path
             style="fill:#d2d2d2;fill-opacity:1;stroke:#c8c8c8;stroke-width:0.17034622999999999;stroke-linejoin:round;stroke-miterlimit:4;stroke-opacity:1;stroke-dasharray:none"
             d="m 8.7645741,1035.1059 c 0.2346787,0.034 0.7710867,0.017 0.7710867,0.017 l -3.0172955,4.0566 -0.8213748,-0.084 z"
             id="path3050"
             inkscape:connector-curvature="0"
             sodipodi:nodetypes="ccccc" />
          <path
             style="fill:#d2d2d2;fill-opacity:1;stroke:#c8c8c8;stroke-width:0.17034622999999999;stroke-linejoin:round;stroke-miterlimit:4;stroke-opacity:1;stroke-dasharray:none"
             d="m 9.8515236,1035.1807 c 0.2346784,0.034 0.7592334,0.017 0.7592334,0.017 l -2.8394994,4.1039 -0.868787,-0.073 z"
             id="path3050-5"
             inkscape:connector-curvature="0"
             sodipodi:nodetypes="ccccc" />
          <path
             style="fill:#d2d2d2;fill-opacity:1;stroke:#c8c8c8;stroke-width:0.17034622999999999;stroke-linejoin:round;stroke-miterlimit:4;stroke-opacity:1;stroke-dasharray:none"
             d="m 11.091967,1035.3122 c 0.234679,0.034 0.771087,0.028 0.771087,0.028 l -2.6498508,4.1277 -0.8806401,-0.06 z"
             id="path3050-50"
             inkscape:connector-curvature="0"
             sodipodi:nodetypes="ccccc" />
          <path
             style="fill:#d2d2d2;fill-opacity:1;stroke:#c8c8c8;stroke-width:0.17034622999999999;stroke-linejoin:round;stroke-miterlimit:4;stroke-opacity:1;stroke-dasharray:none"
             d="m 16.979161,1039.9792 c -0.05926,-0.024 -2.169109,-0.2607 -2.169109,-0.2607 l 0.177796,-0.6638 2.536554,0.2489 c 0,0 0.0237,-0.3556 0.201501,-0.4149 0.177796,-0.059 0.248915,-0.024 0.308179,-0.095 0.05926,-0.071 0.272621,-0.1659 0.272621,-0.1659 l 0.248914,0.1541 -0.154089,0.237 0.462268,0.4979 1.623869,0.1303 c 0,0 0.04741,0.7231 -0.118528,0.7112 -0.165941,-0.012 -2.477288,-0.32 -2.477288,-0.32 z"
             id="path3962"
             inkscape:connector-curvature="0" />
          <path
             style="fill:#d2d2d2;fill-opacity:1;stroke:#c8c8c8;stroke-width:0.17034622999999999;stroke-linejoin:round;stroke-miterlimit:4;stroke-opacity:1;stroke-dasharray:none"
             d="m 12.795032,1039.2325 1.872784,-1.4816 0.01188,0.6756 -1.623869,1.3512 z"
             id="path3906"
             inkscape:connector-curvature="0" />
          <path
             style="fill:#d2d2d2;fill-opacity:1;stroke:#c8c8c8;stroke-width:0.17034622999999999;stroke-linejoin:round;stroke-miterlimit:4;stroke-opacity:1;stroke-dasharray:none;display:inline"
             d="m 12.860211,1039.9971 1.872784,-1.4817 0.01188,0.6757 -1.623869,1.3513 z"
             id="path3906-2"
             inkscape:connector-curvature="0" />
          <path
             style="fill:#d2d2d2;fill-opacity:1;stroke:#c8c8c8;stroke-width:0.17034622999999999;stroke-linejoin:round;stroke-miterlimit:4;stroke-opacity:1;stroke-dasharray:none"
             d="m 12.253507,1035.3896 c 0.234679,0.034 0.78294,0.017 0.78294,0.017 l -2.507614,4.2105 -0.8924935,-0.071 z"
             id="path3050-4"
             inkscape:connector-curvature="0"
             sodipodi:nodetypes="ccccc" />
          <path
             style="fill:#d2d2d2;fill-opacity:1;stroke:#c8c8c8;stroke-width:0.17034622999999999;stroke-linejoin:round;stroke-miterlimit:4;stroke-opacity:1;stroke-dasharray:none"
             d="m 8.696085,1040.702 c 0.2346786,0.034 0.9607355,0.1229 0.9607355,0.1229 l -3.8944216,6.4271 -1.070289,-0.2378 z"
             id="path3050-1"
             inkscape:connector-curvature="0"
             sodipodi:nodetypes="ccccc" />
          <path
             style="fill:#d2d2d2;fill-opacity:1;stroke:#c8c8c8;stroke-width:0.17034622999999999;stroke-linejoin:round;stroke-miterlimit:4;stroke-opacity:1;stroke-dasharray:none"
             d="m 7.3333924,1040.5382 c 0.2346786,0.034 0.9370294,0.075 0.9370294,0.075 l -4.0485114,6.2613 -0.9517584,-0.2971 z"
             id="path3050-9"
             inkscape:connector-curvature="0"
             sodipodi:nodetypes="ccccc" />
          <path
             style="fill:#d2d2d2;fill-opacity:1;stroke:#c8c8c8;stroke-width:0.17034622999999999;stroke-linejoin:round;stroke-miterlimit:4;stroke-opacity:1;stroke-dasharray:none"
             d="m 5.8677406,1040.2978 c 0.2346786,0.034 0.8777642,0.1118 0.8777642,0.1118 l -4.2381602,5.9292 -0.8332279,-0.2497 z"
             id="path3050-41"
             inkscape:connector-curvature="0"
             sodipodi:nodetypes="ccccc" />
          <path
             style="fill:#d2d2d2;fill-opacity:1;stroke:#c8c8c8;stroke-width:0.17034622999999999;stroke-linejoin:round;stroke-miterlimit:4;stroke-opacity:1;stroke-dasharray:none"
             d="m 4.6157929,1040.1539 c 0.2346786,0.034 0.8422051,0.088 0.8422051,0.088 l -4.2381604,5.7515 -0.71469727,-0.2497 z"
             id="path3050-43"
             inkscape:connector-curvature="0"
             sodipodi:nodetypes="ccccc" />
          <path
             style="fill:#d2d2d2;fill-opacity:1;stroke:#c8c8c8;stroke-width:0.17034622999999999;stroke-linejoin:round;stroke-miterlimit:4;stroke-opacity:1;stroke-dasharray:none;display:inline"
             d="m 12.848358,1040.8149 1.849077,-1.5528 0.01188,0.6756 -1.576456,1.4343 z"
             id="path3906-9"
             inkscape:connector-curvature="0"
             sodipodi:nodetypes="ccccc" />
          <path
             style="fill:#d2d2d2;fill-opacity:1;stroke:#c8c8c8;stroke-width:0.17034622999999999;stroke-linejoin:round;stroke-miterlimit:4;stroke-opacity:1;stroke-dasharray:none"
             d="m 14.430754,1042.3261 c 0,0 -1.12604,-0.2015 -1.137893,-0.1896 -0.40891,0.031 -0.473942,1.1977 -0.213355,1.1853 l 1.244571,0.1896 0.11853,-0.1185 0.05927,0.095 c 0,0 0.260766,0.3556 0.568946,0.249 0.308179,-0.1067 0.343739,-0.249 0.343739,-0.249 0,0 -0.01188,0.1541 0.04741,0.1778 0.05926,0.024 2.560259,0.4149 2.560259,0.4149 0,0 0.15409,-0.2134 0.165943,-0.3319 0.01188,-0.1185 0.08298,-0.024 0.142236,-0.024 0.05926,0 0.320034,-0.4741 0.320034,-0.4741 l -0.106678,-0.5216 -0.403005,-0.3081 0,-0.166 0.225209,-0.071 0.106678,-0.083 0.331885,0.024 1.019362,-0.3319 -0.03556,-0.3556 -1.35125,0.2845 -0.08298,0.071 -0.09483,-0.1422 -0.568946,0.1659 c 0,0 -0.213356,-0.059 -0.331887,-0.047 -0.118527,0.012 -0.308179,0.095 -0.403003,0.1304 -0.09483,0.036 -0.03556,0.012 -0.05926,0.1185 -0.0237,0.1067 -0.0237,0.6875 -0.0237,0.6875 l -0.829715,-0.1185 1.256424,-1.7187 0.34374,-0.6401 -0.01188,-0.1778 0.284473,-0.3911 c 0,0 0.09483,-0.036 -0.07111,-0.1422 -0.165941,-0.1067 -0.177795,-0.1067 -0.177795,-0.1067 l -0.189649,0 -0.331885,0.2963 c 0,0 -0.03556,0.036 -0.09483,0.047 -0.05926,0.012 -0.509681,0.5571 -0.509681,0.5571 0,0 -0.675625,-0.1541 -0.73489,-0.1067 -0.05926,0.047 -0.284472,0.2726 -0.284472,0.2726 l -0.355564,1.1142 z"
             id="path3886"
             inkscape:connector-curvature="0"
             sodipodi:nodetypes="ccccccsccccsccccccccccccccccccccccsccccccccc" />
          <path
             style="fill:#d2d2d2;fill-opacity:1;stroke:#c8c8c8;stroke-width:0.17034622999999999;stroke-linejoin:round;stroke-miterlimit:4;stroke-opacity:1;stroke-dasharray:none"
             d="m 12.427587,1041.4846 -0.130383,-2.2758 0.877126,0.1067 0.07112,2.2876 z"
             id="path3904"
             inkscape:connector-curvature="0" />
          <path
             style="fill:#d2d2d2;fill-opacity:1;stroke:#c8c8c8;stroke-width:0.17034622999999999;stroke-linejoin:round;stroke-miterlimit:4;stroke-opacity:1;stroke-dasharray:none"
             d="m 19.456449,1040.0385 0.936393,-1.6831 -0.02371,0.6874 -0.829715,1.4224 z"
             id="path3935"
             inkscape:connector-curvature="0"
             sodipodi:nodetypes="ccccc" />
          <path
             style="fill:#d2d2d2;fill-opacity:1;stroke:#c8c8c8;stroke-width:0.17034622999999999;stroke-linejoin:round;stroke-miterlimit:4;stroke-opacity:1;stroke-dasharray:none;display:inline"
             d="m 19.403111,1040.88 0.936392,-1.6832 -0.02371,0.6875 -0.829715,1.4223 z"
             id="path3935-1"
             inkscape:connector-curvature="0"
             sodipodi:nodetypes="ccccc" />
          <path
             style="fill:#d2d2d2;fill-opacity:1;stroke:#c8c8c8;stroke-width:0.17034622999999999;stroke-linejoin:round;stroke-miterlimit:4;stroke-opacity:1;stroke-dasharray:none;display:inline"
             d="m 19.545347,1041.3898 0.73489,-1.3632 -0.05928,0.6164 -0.592653,1.0666 z"
             id="path3935-6"
             inkscape:connector-curvature="0"
             sodipodi:nodetypes="ccccc" />
          <path
             style="fill:#d2d2d2;fill-opacity:1;stroke:#c8c8c8;stroke-width:0.17034622999999999;stroke-linejoin:round;stroke-miterlimit:4;stroke-opacity:1;stroke-dasharray:none"
             d="m 18.923062,1040.0029 1.019363,0.071 -0.154089,2.4535 -0.936392,-0.1659 z"
             id="path3933"
             inkscape:connector-curvature="0" />
          <path
             style="fill:#d2d2d2;fill-opacity:1;stroke:#c8c8c8;stroke-width:0.17034622999999999;stroke-linejoin:round;stroke-miterlimit:4;stroke-opacity:1;stroke-dasharray:none"
             d="m 6.4299412,1039.2918 -0.3674449,0.4267 0.3081796,0.3674 22.6274841,3.0462 0.165943,-0.6519 -0.213355,-0.5097 z"
             id="path3884"
             inkscape:connector-curvature="0"
             sodipodi:nodetypes="ccccccc" />
          <path
             style="fill:#d2d2d2;fill-opacity:1;stroke:#c8c8c8;stroke-width:0.17034622999999999;stroke-linejoin:round;stroke-miterlimit:4;stroke-opacity:1;stroke-dasharray:none"
             d="m 14.418901,1042.338 c -0.04159,0.3898 1.047218,0.4046 1.197158,0.1422 0,0 0,-1.7779 0,-1.8609 0,-0.083 -0.142539,-0.2675 -0.616358,-0.2845 -0.330995,-0.012 -0.5808,0.1541 -0.592653,0.2371 -0.01185,0.083 0.01185,1.7661 0.01185,1.7661 z"
             id="path3896"
             inkscape:connector-curvature="0"
             sodipodi:nodetypes="ccsscc" />
          <path
             style="fill:#d2d2d2;fill-opacity:1;stroke:#c8c8c8;stroke-width:0.17034622999999999;stroke-linejoin:round;stroke-miterlimit:4;stroke-opacity:1;stroke-dasharray:none"
             d="m 14.513725,1043.1559 c 0.118531,-0.2253 0.438563,-0.1778 0.497828,-0.083 0.118528,0.1185 0.177796,0.237 0.118528,0.32 -0.04741,0.2015 -0.308179,0.4741 -0.308179,0.4741 -0.178959,0.1572 -0.464721,-0.063 -0.343739,-0.2726 0.04741,-0.024 0.05927,-0.1185 0.05927,-0.1185 z"
             id="path3898"
             inkscape:connector-curvature="0"
             sodipodi:nodetypes="ccccccc" />
          <path
             style="fill:#d2d2d2;fill-opacity:1;stroke:#c8c8c8;stroke-width:0.17034622999999999;stroke-linejoin:round;stroke-miterlimit:4;stroke-opacity:1;stroke-dasharray:none"
             d="m 16.422068,1043.8078 -0.0237,0.2252 -0.794156,-0.095 0.02371,0.2964 0.806007,0.095 -0.106678,0.1422 c 0.176726,0.2833 0.483383,0.1847 0.580801,0.059 -0.07111,-0.095 -0.04741,-0.1778 -0.04741,-0.1778 l 0.782301,0.1778 0.01188,-0.3082 -0.794154,-0.1304 -0.01188,-0.2252 0.557093,-1.6238 c -0.05546,-0.2798 0.0087,-0.5807 -0.557093,-0.7705 l -0.995658,0.889 0.272621,0.5571 z"
             id="path3900"
             inkscape:connector-curvature="0"
             sodipodi:nodetypes="ccccccccccccccccc" />
          <path
             style="fill:#d2d2d2;fill-opacity:1;stroke:#c8c8c8;stroke-width:0.17034622999999999;stroke-linejoin:round;stroke-miterlimit:4;stroke-opacity:1;stroke-dasharray:none"
             d="m 18.342263,1043.7367 -0.213356,0.5807 0.09483,0.1304 1.220865,0.1897 0.106677,-0.3556 0.130378,0 0.308179,0.1659 c 0,0 0.177796,-0.035 0.367445,-0.095 0.189649,-0.059 0.367445,-0.095 0.296326,-0.2134 -0.07111,-0.1185 -0.213355,-0.3081 -0.213355,-0.3081 l -0.04741,-0.2015 0.01188,-0.1541 0.343739,0.047 -0.42671,-0.1422 -0.130392,0.2489 -0.995656,-0.4742 -0.05926,0.071 -0.995657,0.059 -0.01188,0.1304 1.126041,-0.083 0.61637,0.249 c 0,0 -0.07111,0.1303 -0.08298,0.2015 -0.01188,0.071 -0.09483,0.2252 -0.09483,0.2252 0,0 -0.106678,-0.1304 -0.165943,-0.1304 -0.05926,0 -1.185305,-0.1422 -1.185305,-0.1422 z"
             id="path3902"
             inkscape:connector-curvature="0" />
          <path
             style="fill:#d2d2d2;fill-opacity:1;stroke:#c8c8c8;stroke-width:0.17034622999999999;stroke-linejoin:round;stroke-miterlimit:4;stroke-opacity:1;stroke-dasharray:none"
             d="m 17.820728,1038.0472 -0.01188,0.6993 3.25959,-0.4978 0.0237,-0.6756 z"
             id="path4028"
             inkscape:connector-curvature="0" />
          <path
             style="fill:#d2d2d2;fill-opacity:1;stroke:#c8c8c8;stroke-width:0.17034622999999999;stroke-linejoin:round;stroke-miterlimit:4;stroke-opacity:1;stroke-dasharray:none"
             d="m 22.739745,1040.8919 1.220866,0.1067 0.699331,-5.1679 -1.054923,-0.047 z"
             id="path4049"
             inkscape:connector-curvature="0"
             sodipodi:nodetypes="ccccc" />
          <path
             style="fill:#d2d2d2;fill-opacity:1;stroke:#c8c8c8;stroke-width:0.17034622999999999;stroke-linejoin:round;stroke-miterlimit:4;stroke-opacity:1;stroke-dasharray:none;display:inline"
             d="m 24.553263,1041.0703 1.256425,0.094 0.379299,-5.2508 -1.07863,-0.036 z"
             id="path4049-8"
             inkscape:connector-curvature="0"
             sodipodi:nodetypes="ccccc" />
          <path
             style="fill:#d2d2d2;fill-opacity:1;stroke:#c8c8c8;stroke-width:0.17034622999999999;stroke-linejoin:round;stroke-miterlimit:4;stroke-opacity:1;stroke-dasharray:none;display:inline"
             d="m 20.973351,1050.8489 1.656698,0.2068 1.101636,-8.3529 -1.222549,-0.1482 z"
             id="path4049-1"
             inkscape:connector-curvature="0"
             sodipodi:nodetypes="ccccc" />
          <path
             style="fill:#d2d2d2;fill-opacity:1;stroke:#c8c8c8;stroke-width:0.17034622999999999;stroke-linejoin:round;stroke-miterlimit:4;stroke-opacity:1;stroke-dasharray:none;display:inline"
             d="m 23.326996,1051.1585 1.690221,0.1397 0.638382,-8.4386 -1.315691,-0.082 z"
             id="path4049-3"
             inkscape:connector-curvature="0"
             sodipodi:nodetypes="ccccc" />
          <path
             style="fill:#d2d2d2;fill-opacity:1;stroke:#c8c8c8;stroke-width:0.17034622999999999;stroke-linejoin:round;stroke-miterlimit:4;stroke-opacity:1;stroke-dasharray:none;display:inline"
             d="m 26.186603,1051.5272 1.522595,0.039 0.06235,-8.3866 -1.1555,-0.1145 z"
             id="path4049-5"
             inkscape:connector-curvature="0"
             sodipodi:nodetypes="ccccc" />
          <path
             style="fill:#d2d2d2;fill-opacity:1;stroke:#c8c8c8;stroke-width:0.17034622999999999;stroke-linejoin:round;stroke-miterlimit:4;stroke-opacity:1;stroke-dasharray:none;display:inline"
             d="m 28.329275,1051.5984 1.623171,0.2068 -0.373486,-8.5207 -1.222549,-0.081 z"
             id="path4049-32"
             inkscape:connector-curvature="0"
             sodipodi:nodetypes="ccccc" />
          <path
             style="fill:#d2d2d2;fill-opacity:1;stroke:#c8c8c8;stroke-width:0.17034622999999999;stroke-linejoin:round;stroke-miterlimit:4;stroke-opacity:1;stroke-dasharray:none;display:inline"
             d="m 26.746079,1041.3075 1.137895,0.1535 0.201501,-5.4051 -1.137893,-0.048 z"
             id="path4049-9"
             inkscape:connector-curvature="0"
             sodipodi:nodetypes="ccccc" />
          <path
             style="fill:#d2d2d2;fill-opacity:1;stroke:#c8c8c8;stroke-width:0.17034622999999999;stroke-linejoin:round;stroke-miterlimit:4;stroke-opacity:1;stroke-dasharray:none;display:inline"
             d="m 28.358093,1041.4852 1.149748,0.094 0.296328,-5.4642 -1.173453,-0.06 z"
             id="path4049-2"
             inkscape:connector-curvature="0"
             sodipodi:nodetypes="ccccc" />
        </g>
      </g>
    </g>
    <text
       xml:space="preserve"
       style="font-size:25px;font-style:normal;font-variant:normal;font-weight:500;font-stretch:normal;text-align:start;line-height:125%;letter-spacing:0px;word-spacing:0px;writing-mode:lr-tb;text-anchor:start;fill:#979797;fill-opacity:1;stroke:none;font-family:Knockout;-inkscape-font-specification:Knockout Medium"
       x="156.65353"
       y="196.88191"
       id="text4355"
       sodipodi:linespacing="125%"><tspan
         sodipodi:role="line"
         id="tspan4357"
         x="156.65353"
         y="196.88191">ISS NOTIFY</tspan></text>
  </g>
</svg>
