%
M48
M72
T01C0.0142
T02C0.0276
T03C0.0315
T04C0.0394
T05C0.1250
%
T01
X669Y709
X3740Y827
X4587Y1594
X5630Y2717
X6929Y2972
X7382Y3996
X6417Y4409
X6102Y4685
X6378Y6024
X4843Y5866
X5236Y7323
X6280Y8366
X6457Y9016
X7795Y7953
X7815Y7185
X8268Y7165
X9252Y7146
X10000Y7323
X10354Y7795
X10965Y7697
X11339Y8346
X10709Y6929
X9390Y6240
X10709Y5709
X10984Y5394
X9961Y4921
X8976Y4882
X7992Y5394
X7992Y5827
X10571Y2697
X11732Y2441
X12087Y2756
X11850Y4331
X12638Y4390
X14173Y5020
X15118Y4685
X16378Y5315
X16890Y5630
X15669Y6142
X16535Y7520
X16850Y9134
X17835Y9291
X18622Y8819
X18898Y9134
X19173Y9449
X20236Y10157
X20433Y10591
X20787Y9764
X21772Y9449
X21850Y10079
X22638Y12165
X23110Y12598
X23307Y12165
X23858Y12165
X24488Y12874
X25236Y12441
X25591Y11299
X24291Y10276
X24921Y9764
X25591Y9134
X26654Y9882
X28504Y9685
X30197Y8346
X31260Y6535
X30472Y5551
X29961Y4606
X28622Y4606
X28425Y5276
X27559Y4055
X26417Y3386
X25197Y3031
X24646Y2913
X22717Y3071
X21260Y3386
X20984Y3701
X19409Y4528
X18937Y4528
X18465Y4567
X17165Y3701
X16890Y4016
X17441Y3386
X19016Y1614
X14291Y1811
X13622Y787
X12933Y906
X8071Y945
X7087Y945
X669Y3819
X689Y6713
X2638Y8228
X1772Y8819
X2362Y9173
X3937Y12126
X3346Y13583
X2480Y15020
X3957Y15433
X4311Y16142
X3110Y16752
X4331Y17382
X3957Y18425
X5472Y20433
X6752Y21476
X8228Y20394
X8169Y18780
X6791Y18524
X6850Y16220
X7815Y16220
X6476Y14862
X5610Y14311
X5591Y15610
X7126Y13937
X6476Y12598
X7283Y11535
X7480Y10925
X8701Y11752
X9409Y10866
X9055Y10394
X10197Y10039
X9705Y9350
X12047Y10591
X12165Y11299
X11555Y11634
X10827Y11614
X10394Y11614
X12480Y12795
X13307Y12913
X13661Y11614
X13976Y10984
X14291Y10709
X12677Y9567
X13386Y8189
X14646Y9173
X13150Y6654
X12756Y6339
X12480Y5984
X13780Y6142
X18504Y7441
X21299Y6969
X22717Y7362
X25827Y6260
X27402Y7480
X30591Y10591
X32913Y10276
X34094Y10118
X34488Y10748
X35827Y10827
X36142Y12402
X36929Y13071
X35354Y14646
X33346Y14016
X33307Y15394
X33268Y16142
X30354Y15984
X28622Y14685
X28150Y14134
X29213Y13268
X29843Y14331
X30669Y12717
X32992Y12362
X35512Y8780
X34252Y7992
X33346Y7283
X32874Y5433
X35039Y3465
X32520Y472
X26220Y1024
X38819Y591
X38780Y5079
X27638Y11614
X26890Y12913
X24803Y13583
X24173Y15236
X24764Y15433
X25945Y16772
X26299Y16417
X27008Y15433
X27165Y17638
X26142Y19016
X25669Y18976
X24173Y18858
X24213Y19567
X22913Y20315
X22047Y20118
X22047Y19646
X22165Y19173
X20157Y20551
X20787Y20906
X22480Y21575
X23858Y22953
X24370Y22559
X24902Y22953
X23858Y23386
X22520Y23937
X23543Y25000
X23346Y26260
X21496Y27205
X23071Y28465
X21693Y30945
X19764Y29961
X19134Y28031
X16496Y28760
X16535Y26575
X15669Y24764
X15827Y24055
X16850Y24409
X17126Y22480
X18228Y21811
X19016Y21220
X18583Y19921
X18937Y19528
X18622Y19134
X18110Y18858
X17835Y18465
X16457Y18622
X16220Y17087
X15709Y16378
X15630Y15079
X16654Y15079
X16654Y14134
X15669Y14134
X17598Y13858
X17992Y14213
X17598Y14724
X18307Y15433
X17992Y15748
X17717Y16063
X19921Y15236
X19803Y14567
X20472Y14685
X21850Y15591
X20197Y15984
X20197Y17598
X19213Y18543
X22205Y17087
X22441Y13268
X20433Y12244
X18740Y13268
X18465Y12598
X18425Y12165
X17126Y12205
X12795Y15709
X12480Y15394
X11378Y15354
X11339Y16535
X12087Y16772
X12480Y17087
X11024Y17480
X10394Y18543
X11614Y19724
X12874Y20039
X13150Y20866
X13465Y22087
X14016Y21811
X15118Y20866
X15000Y20315
X14291Y20039
X14331Y19567
X14331Y19173
X13740Y18150
X10394Y20748
X7756Y23287
X7106Y24291
X7480Y24370
X7933Y25669
X7992Y26457
X7126Y26654
X5748Y26811
X4843Y27480
X2402Y26535
X591Y26693
X1535Y24370
X472Y22441
X1890Y20866
X551Y18071
X551Y13031
X5906Y11142
X10000Y13583
X10197Y13976
X11339Y14134
X20079Y22559
X19528Y24055
X19961Y25000
X21102Y24488
X25315Y24488
X26772Y24764
X28465Y26417
X28307Y28031
X26102Y27283
X27756Y30945
X31614Y28701
X32087Y26654
X34016Y28110
X33307Y30906
X38661Y30866
X38110Y26693
X32441Y20827
X30866Y19055
X29134Y17638
X28976Y20906
X27913Y21437
X27441Y22598
X25787Y21772
X30315Y23780
X37441Y17362
X38701Y15236
X38819Y19685
X16457Y30846
X13150Y30846
X13150Y28524
X11063Y28169
X10906Y27303
X9843Y27638
X9488Y26457
X8386Y28386
X7776Y28346
X9685Y29213
X8799Y30886
X5315Y30866
X5472Y29567
X591Y30906
X5118Y24803
X4252Y23858
X9409Y23976
X12756Y25118
X13425Y24606
X13740Y23386
T02
X4390Y22382
X4390Y20807
X4390Y19232
T03
X10425Y28075
X10425Y28862
T04
X5079Y23169
X2717Y23169
X2717Y18445
X5079Y18445
X3547Y7256
X1776Y7256
X1776Y4697
X3547Y4697
X15425Y2547
X15425Y1547
X16425Y1547
X17425Y1547
X17425Y2547
X16425Y2547
X27315Y1063
X28315Y1063
X29315Y1063
X30315Y1063
X31315Y1063
X32315Y1063
X33315Y1063
X38567Y6035
X38567Y7035
X38567Y8035
X38567Y9035
X38567Y10035
X38567Y11035
X38567Y12035
T05
X37008Y2362
X37008Y29134
X2362Y29134
X2362Y2362
M30
